G04 Layer_Color=128*
%FSLAX44Y44*%
%MOMM*%
G71*
G01*
G75*
%ADD66C,0.0508*%
D66*
X320500Y45400D02*
X329500D01*
X325000Y40900D02*
Y49900D01*
X320500Y20000D02*
X329500D01*
X325000Y15500D02*
Y24500D01*
X280500Y45400D02*
X289500D01*
X285000Y40900D02*
Y49900D01*
X280500Y20000D02*
X289500D01*
X285000Y15500D02*
Y24500D01*
X210500Y20000D02*
X219500D01*
X215000Y15500D02*
Y24500D01*
X235900Y20000D02*
X244900D01*
X240400Y15500D02*
Y24500D01*
X171300Y20000D02*
X180300D01*
X175800Y15500D02*
Y24500D01*
X145900Y20000D02*
X154900D01*
X150400Y15500D02*
Y24500D01*
X120500Y20000D02*
X129500D01*
X125000Y15500D02*
Y24500D01*
X65500Y45400D02*
X74500D01*
X70000Y40900D02*
Y49900D01*
X65500Y20000D02*
X74500D01*
X70000Y15500D02*
Y24500D01*
X15500Y45000D02*
X24500D01*
X20000Y40500D02*
Y49500D01*
X15500Y19600D02*
X24500D01*
X20000Y15100D02*
Y24100D01*
X15500Y300000D02*
X24500D01*
X20000Y295500D02*
Y304500D01*
X15500Y274600D02*
X24500D01*
X20000Y270100D02*
Y279100D01*
X15500Y249200D02*
X24500D01*
X20000Y244700D02*
Y253700D01*
X15500Y223800D02*
X24500D01*
X20000Y219300D02*
Y228300D01*
X15500Y198400D02*
X24500D01*
X20000Y193900D02*
Y202900D01*
X54300Y300000D02*
X63300D01*
X58800Y295500D02*
Y304500D01*
X79700Y300000D02*
X88700D01*
X84200Y295500D02*
Y304500D01*
X105100Y300000D02*
X114100D01*
X109600Y295500D02*
Y304500D01*
X130500Y300000D02*
X139500D01*
X135000Y295500D02*
Y304500D01*
X321700Y300000D02*
X330700D01*
X326200Y295500D02*
Y304500D01*
X296300Y300000D02*
X305300D01*
X300800Y295500D02*
Y304500D01*
X270900Y300000D02*
X279900D01*
X275400Y295500D02*
Y304500D01*
X245500Y300000D02*
X254500D01*
X250000Y295500D02*
Y304500D01*
X194700Y300000D02*
X203700D01*
X199200Y295500D02*
Y304500D01*
X169300Y300000D02*
X178300D01*
X173800Y295500D02*
Y304500D01*
X220100Y300000D02*
X229100D01*
X224600Y295500D02*
Y304500D01*
X331375Y195125D02*
X339625D01*
X335500Y191000D02*
Y199250D01*
X302250Y184250D02*
X308750D01*
X305500Y181000D02*
Y187500D01*
X302250Y135750D02*
X308750D01*
X305500Y132500D02*
Y139000D01*
X331375Y124875D02*
X339625D01*
X335500Y120750D02*
Y129000D01*
X40900Y109600D02*
X49900D01*
X45400Y105100D02*
Y114100D01*
X15500Y109600D02*
X24500D01*
X20000Y105100D02*
Y114100D01*
X40900Y135000D02*
X49900D01*
X45400Y130500D02*
Y139500D01*
X15500Y135000D02*
X24500D01*
X20000Y130500D02*
Y139500D01*
X137580Y76560D02*
X140580D01*
X139080Y75060D02*
Y78060D01*
X155980Y99060D02*
X158980D01*
X157480Y97560D02*
Y100560D01*
X93750Y271780D02*
X96750D01*
X95250Y270280D02*
Y273280D01*
X167410Y218440D02*
X170410D01*
X168910Y216940D02*
Y219940D01*
X201700Y160020D02*
X204700D01*
X203200Y158520D02*
Y161520D01*
X97560Y208280D02*
X100560D01*
X99060Y206780D02*
Y209780D01*
X181380Y187960D02*
X184380D01*
X182880Y186460D02*
Y189460D01*
X171220Y187960D02*
X174220D01*
X172720Y186460D02*
Y189460D01*
X189000Y180340D02*
X192000D01*
X190500Y178840D02*
Y181840D01*
X262660Y184250D02*
X265660D01*
X264160Y182750D02*
Y185750D01*
X199160Y127000D02*
X202160D01*
X200660Y125500D02*
Y128500D01*
X196620Y220980D02*
X199620D01*
X198120Y219480D02*
Y222480D01*
X202780Y214440D02*
X205780D01*
X204280Y212940D02*
Y215940D01*
X248500Y214440D02*
X251500D01*
X250000Y212940D02*
Y215940D01*
X242340Y220980D02*
X245340D01*
X243840Y219480D02*
Y222480D01*
X191540Y142240D02*
X194540D01*
X193040Y140740D02*
Y143740D01*
X181380Y149960D02*
X184380D01*
X182880Y148460D02*
Y151460D01*
X90640Y201580D02*
X93640D01*
X92140Y200080D02*
Y203080D01*
X222020Y195580D02*
X225020D01*
X223520Y194080D02*
Y197080D01*
X141000Y195320D02*
X144000D01*
X142500Y193820D02*
Y196820D01*
X223290Y280670D02*
X226290D01*
X224790Y279170D02*
Y282170D01*
X167040Y105040D02*
X170040D01*
X168540Y103540D02*
Y106540D01*
X102640Y185420D02*
X105640D01*
X104140Y183920D02*
Y186920D01*
X141000Y157220D02*
X144000D01*
X142500Y155720D02*
Y158720D01*
X95885Y175260D02*
X98885D01*
X97385Y173760D02*
Y176760D01*
X158268Y262500D02*
X163268D01*
X160768Y260000D02*
Y265000D01*
X244880Y121920D02*
X247880D01*
X246380Y120420D02*
Y123420D01*
X167040Y119380D02*
X170040D01*
X168540Y117880D02*
Y120880D01*
X155980Y119380D02*
X158980D01*
X157480Y117880D02*
Y120880D01*
X126000Y119380D02*
X129000D01*
X127500Y117880D02*
Y120880D01*
X43500Y73660D02*
X46500D01*
X45000Y72160D02*
Y75160D01*
X89940Y119380D02*
X92940D01*
X91440Y117880D02*
Y120880D01*
X238500Y115600D02*
X241500D01*
X240000Y114100D02*
Y117100D01*
X306500Y93980D02*
X309500D01*
X308000Y92480D02*
Y95480D01*
X64540Y177800D02*
X67540D01*
X66040Y176300D02*
Y179300D01*
X54380Y185420D02*
X57380D01*
X55880Y183920D02*
Y186920D01*
X291870Y170180D02*
X294870D01*
X293370Y168680D02*
Y171680D01*
X291870Y153670D02*
X294870D01*
X293370Y152170D02*
Y155170D01*
X150900Y280670D02*
X153900D01*
X152400Y279170D02*
Y282170D01*
X150900Y271780D02*
X153900D01*
X152400Y270280D02*
Y273280D01*
X251660Y73660D02*
X254660D01*
X253160Y72160D02*
Y75160D01*
X75970Y167640D02*
X78970D01*
X77470Y166140D02*
Y169140D01*
M02*
