G04 Layer_Color=16711935*
%FSLAX44Y44*%
%MOMM*%
G71*
G01*
G75*
%ADD35C,0.2540*%
%ADD39C,0.1000*%
%ADD63C,0.1524*%
%ADD64C,0.0800*%
D35*
X-104140Y320000D02*
X-4040D01*
X-104140Y0D02*
X-4040D01*
X-101600Y228558D02*
Y320000D01*
Y0D02*
Y83314D01*
X-106680Y304760D02*
X-101600Y320000D01*
X-96520Y304760D01*
X-101600Y0D02*
X-96520Y15240D01*
X-106680D02*
X-101600Y0D01*
X350000Y-71120D02*
Y-4040D01*
X0Y-71120D02*
Y-4040D01*
X243558Y-68580D02*
X350000D01*
X0D02*
X98314D01*
X334760Y-63500D02*
X350000Y-68580D01*
X334760Y-73660D02*
X350000Y-68580D01*
X0D02*
X15240Y-73660D01*
X0Y-68580D02*
X15240Y-63500D01*
D39*
X100000Y223000D02*
X100000Y227000D01*
X98000Y225000D02*
X102000D01*
X100000Y253000D02*
X100000Y257000D01*
X98000Y255000D02*
X102000Y255000D01*
X350000Y112500D02*
Y207500D01*
D63*
X-105154Y87378D02*
X-107694Y89917D01*
Y94996D01*
X-105154Y97535D01*
X-102615D01*
X-100076Y94996D01*
Y92457D01*
Y94996D01*
X-97537Y97535D01*
X-94998D01*
X-92458Y94996D01*
Y89917D01*
X-94998Y87378D01*
X-92458Y112770D02*
Y102613D01*
X-102615Y112770D01*
X-105154D01*
X-107694Y110231D01*
Y105152D01*
X-105154Y102613D01*
X-92458Y117848D02*
X-94998D01*
Y120387D01*
X-92458D01*
Y117848D01*
X-105154Y130544D02*
X-107694Y133083D01*
Y138162D01*
X-105154Y140701D01*
X-94998D01*
X-92458Y138162D01*
Y133083D01*
X-94998Y130544D01*
X-105154D01*
Y145779D02*
X-107694Y148319D01*
Y153397D01*
X-105154Y155936D01*
X-94998D01*
X-92458Y153397D01*
Y148319D01*
X-94998Y145779D01*
X-105154D01*
X-92458Y181328D02*
X-97537Y176249D01*
X-102615D01*
X-107694Y181328D01*
X-92458Y188945D02*
X-102615D01*
Y191485D01*
X-100076Y194024D01*
X-92458D01*
X-100076D01*
X-102615Y196563D01*
X-100076Y199102D01*
X-92458D01*
Y204180D02*
X-102615D01*
Y206720D01*
X-100076Y209259D01*
X-92458D01*
X-100076D01*
X-102615Y211798D01*
X-100076Y214337D01*
X-92458D01*
Y219415D02*
X-97537Y224494D01*
X-102615D01*
X-107694Y219415D01*
X102378Y-65026D02*
X104917Y-62487D01*
X109996D01*
X112535Y-65026D01*
Y-67565D01*
X109996Y-70104D01*
X107457D01*
X109996D01*
X112535Y-72643D01*
Y-75182D01*
X109996Y-77722D01*
X104917D01*
X102378Y-75182D01*
X127770Y-62487D02*
X117613D01*
Y-70104D01*
X122692Y-67565D01*
X125231D01*
X127770Y-70104D01*
Y-75182D01*
X125231Y-77722D01*
X120152D01*
X117613Y-75182D01*
X132848Y-77722D02*
Y-75182D01*
X135387D01*
Y-77722D01*
X132848D01*
X145544Y-65026D02*
X148083Y-62487D01*
X153162D01*
X155701Y-65026D01*
Y-75182D01*
X153162Y-77722D01*
X148083D01*
X145544Y-75182D01*
Y-65026D01*
X160779D02*
X163319Y-62487D01*
X168397D01*
X170936Y-65026D01*
Y-75182D01*
X168397Y-77722D01*
X163319D01*
X160779Y-75182D01*
Y-65026D01*
X196328Y-77722D02*
X191249Y-72643D01*
Y-67565D01*
X196328Y-62487D01*
X203945Y-77722D02*
Y-67565D01*
X206485D01*
X209024Y-70104D01*
Y-77722D01*
Y-70104D01*
X211563Y-67565D01*
X214102Y-70104D01*
Y-77722D01*
X219180D02*
Y-67565D01*
X221720D01*
X224259Y-70104D01*
Y-77722D01*
Y-70104D01*
X226798Y-67565D01*
X229337Y-70104D01*
Y-77722D01*
X234415D02*
X239494Y-72643D01*
Y-67565D01*
X234415Y-62487D01*
D64*
X351551Y144325D02*
X354550D01*
Y145824D01*
X354050Y146324D01*
X353550D01*
X353050Y145824D01*
Y144325D01*
Y145824D01*
X352551Y146324D01*
X352051D01*
X351551Y145824D01*
Y144325D01*
X354550Y147824D02*
Y148824D01*
X354050Y149323D01*
X353050D01*
X352551Y148824D01*
Y147824D01*
X353050Y147324D01*
X354050D01*
X354550Y147824D01*
X352551Y150823D02*
Y151823D01*
X353050Y152322D01*
X354550D01*
Y150823D01*
X354050Y150323D01*
X353550Y150823D01*
Y152322D01*
X352551Y153322D02*
X354550D01*
X353550D01*
X353050Y153822D01*
X352551Y154322D01*
Y154822D01*
X351551Y158321D02*
X354550D01*
Y156821D01*
X354050Y156321D01*
X353050D01*
X352551Y156821D01*
Y158321D01*
X351551Y164319D02*
Y162319D01*
X354550D01*
Y164319D01*
X353050Y162319D02*
Y163319D01*
X351551Y167318D02*
X354550D01*
Y165818D01*
X354050Y165318D01*
X353050D01*
X352551Y165818D01*
Y167318D01*
X355550Y169317D02*
Y169817D01*
X355050Y170317D01*
X352551D01*
Y168817D01*
X353050Y168317D01*
X354050D01*
X354550Y168817D01*
Y170317D01*
Y172816D02*
Y171816D01*
X354050Y171316D01*
X353050D01*
X352551Y171816D01*
Y172816D01*
X353050Y173316D01*
X353550D01*
Y171316D01*
M02*
