M48
;Layer_Color=9474304
;FILE_FORMAT=4:4
METRIC,LZ
;TYPE=PLATED
T1F00S00C0.3000
T2F00S00C0.5000
T5F00S00C0.9000
%
T01
X00045Y0007366
X0009144Y0011938
X001275
X0015748
X0016854
Y0010504
X0015748Y0009906
X0013908Y0007656
X001425Y0015722
X001425Y0019532
X0017272Y0018796
X0018288
X001905Y0018034
X002032Y0016002
X0019304Y0014224
X0018288Y0014996
X0020066Y00127
X0024Y001156
X0024638Y0012192
X0025316Y0007366
X0026416Y0018425
X0025Y0021444
X0024384Y0022098
X0019812
X0020428Y0021444
X0022352Y0019558
X0016891Y0021844
X001524Y0027178
Y0028067
X0009525Y0027178
X0009906Y0020828
X0009214Y0020158
X0010414Y0018542
X00097385Y0017526
X0007747Y0016764
X0006604Y001778
X0005588Y0018542
X0022479Y0028067
X0029337Y0017018
Y0015367
X00308Y0009398
T02
X00160768Y002625
T05
X00325Y0002
X00285
X002404
X00215
X001758
X001504
X00125
X0007
X0002Y000196
Y00045
X0007Y000454
X000454Y001096
X0002
Y00135
X000454Y00135
X0002Y001984
Y002238
X0002Y002492
Y002746
Y003
X000588Y003
X000842
X001096
X00135Y003
X001738Y003
X001992Y003
X002246Y003
X0025Y003
X002754Y003
X00285Y000454
X00325
X003262Y003
X003008Y003
M30
