G04 Layer_Color=2752767*
%FSLAX44Y44*%
%MOMM*%
G71*
G01*
G75*
%ADD35C,0.2540*%
%ADD66C,0.0508*%
%ADD67C,0.0677*%
%ADD68C,0.4064*%
%ADD69C,0.2032*%
%ADD70C,0.3556*%
D35*
X400800Y40635D02*
Y25400D01*
X408418D01*
X410957Y27939D01*
Y38096D01*
X408418Y40635D01*
X400800D01*
X416035Y35557D02*
Y25400D01*
Y30478D01*
X418574Y33017D01*
X421113Y35557D01*
X423653D01*
X431270Y25400D02*
X436348D01*
X433809D01*
Y35557D01*
X431270D01*
X443966Y25400D02*
X449044D01*
X446505D01*
Y40635D01*
X443966D01*
X456662Y25400D02*
X461740D01*
X459201D01*
Y40635D01*
X456662D01*
X484593D02*
Y25400D01*
X492210D01*
X494750Y27939D01*
Y38096D01*
X492210Y40635D01*
X484593D01*
X499828Y35557D02*
Y25400D01*
Y30478D01*
X502367Y33017D01*
X504906Y35557D01*
X507445D01*
X517602D02*
X522681D01*
X525220Y33017D01*
Y25400D01*
X517602D01*
X515063Y27939D01*
X517602Y30478D01*
X525220D01*
X530298Y35557D02*
Y27939D01*
X532837Y25400D01*
X535377Y27939D01*
X537916Y25400D01*
X540455Y27939D01*
Y35557D01*
X545533Y25400D02*
X550611D01*
X548072D01*
Y35557D01*
X545533D01*
X558229Y25400D02*
Y35557D01*
X565847D01*
X568386Y33017D01*
Y25400D01*
X578543Y20322D02*
X581082D01*
X583621Y22861D01*
Y35557D01*
X576003D01*
X573464Y33017D01*
Y27939D01*
X576003Y25400D01*
X583621D01*
X588699D02*
Y27939D01*
X591238D01*
Y25400D01*
X588699D01*
X536402Y264160D02*
Y279395D01*
X528784Y271777D01*
X538941D01*
X544020Y264160D02*
X549098D01*
X546559D01*
Y279395D01*
X544020Y276856D01*
X705521D02*
X708060Y279395D01*
X713139D01*
X715678Y276856D01*
Y266699D01*
X713139Y264160D01*
X708060D01*
X705521Y266699D01*
Y276856D01*
X720756Y264160D02*
Y266699D01*
X723295D01*
Y264160D01*
X720756D01*
X733452Y276856D02*
X735991Y279395D01*
X741070D01*
X743609Y276856D01*
Y274317D01*
X741070Y271777D01*
X738530D01*
X741070D01*
X743609Y269238D01*
Y266699D01*
X741070Y264160D01*
X735991D01*
X733452Y266699D01*
X748687Y264160D02*
Y274317D01*
X751226D01*
X753765Y271777D01*
Y264160D01*
Y271777D01*
X756305Y274317D01*
X758844Y271777D01*
Y264160D01*
X763922D02*
Y274317D01*
X766461D01*
X769000Y271777D01*
Y264160D01*
Y271777D01*
X771540Y274317D01*
X774079Y271777D01*
Y264160D01*
X799471D02*
X794392Y269238D01*
Y274317D01*
X799471Y279395D01*
X807088Y264160D02*
X812167D01*
X809627D01*
Y279395D01*
X807088Y276856D01*
X819784Y264160D02*
X824863D01*
X822323D01*
Y279395D01*
X819784Y276856D01*
X832480Y264160D02*
Y266699D01*
X835019D01*
Y264160D01*
X832480D01*
X845176Y276856D02*
X847715Y279395D01*
X852793D01*
X855333Y276856D01*
Y274317D01*
X852793Y271777D01*
X855333Y269238D01*
Y266699D01*
X852793Y264160D01*
X847715D01*
X845176Y266699D01*
Y269238D01*
X847715Y271777D01*
X845176Y274317D01*
Y276856D01*
X847715Y271777D02*
X852793D01*
X860411Y264160D02*
X865489D01*
X862950D01*
Y279395D01*
X860411Y276856D01*
X873107Y264160D02*
X878185D01*
X875646D01*
Y279395D01*
X873107Y276856D01*
X885803Y264160D02*
Y274317D01*
X888342D01*
X890881Y271777D01*
Y264160D01*
Y271777D01*
X893420Y274317D01*
X895959Y271777D01*
Y264160D01*
X901038D02*
X906116D01*
X903577D01*
Y274317D01*
X901038D01*
X913734Y264160D02*
X918812D01*
X916273D01*
Y279395D01*
X913734D01*
X926430Y264160D02*
X931508Y269238D01*
Y274317D01*
X926430Y279395D01*
X1644031Y264160D02*
Y279395D01*
X1651649D01*
X1654188Y276856D01*
Y271777D01*
X1651649Y269238D01*
X1644031D01*
X1659266Y279395D02*
X1669423D01*
X1664344D01*
Y264160D01*
X1674501Y279395D02*
Y264160D01*
Y271777D01*
X1684658D01*
Y279395D01*
Y264160D01*
X1772015D02*
Y279395D01*
X1779633D01*
X1782172Y276856D01*
Y271777D01*
X1779633Y269238D01*
X1772015D01*
X1777094D02*
X1782172Y264160D01*
X1789790D02*
X1794868D01*
X1797407Y266699D01*
Y271777D01*
X1794868Y274317D01*
X1789790D01*
X1787251Y271777D01*
Y266699D01*
X1789790Y264160D01*
X1802486Y274317D02*
Y266699D01*
X1805025Y264160D01*
X1812642D01*
Y274317D01*
X1817721Y264160D02*
Y274317D01*
X1825338D01*
X1827877Y271777D01*
Y264160D01*
X1843112Y279395D02*
Y264160D01*
X1835495D01*
X1832956Y266699D01*
Y271777D01*
X1835495Y274317D01*
X1843112D01*
X528784Y233680D02*
X533863D01*
X531324D01*
Y248915D01*
X528784Y246376D01*
X705521D02*
X708060Y248915D01*
X713139D01*
X715678Y246376D01*
Y236219D01*
X713139Y233680D01*
X708060D01*
X705521Y236219D01*
Y246376D01*
X720756Y233680D02*
Y236219D01*
X723295D01*
Y233680D01*
X720756D01*
X743609Y248915D02*
X733452D01*
Y241297D01*
X738530Y243837D01*
X741070D01*
X743609Y241297D01*
Y236219D01*
X741070Y233680D01*
X735991D01*
X733452Y236219D01*
X748687Y233680D02*
Y243837D01*
X751226D01*
X753765Y241297D01*
Y233680D01*
Y241297D01*
X756305Y243837D01*
X758844Y241297D01*
Y233680D01*
X763922D02*
Y243837D01*
X766461D01*
X769000Y241297D01*
Y233680D01*
Y241297D01*
X771540Y243837D01*
X774079Y241297D01*
Y233680D01*
X799471D02*
X794392Y238758D01*
Y243837D01*
X799471Y248915D01*
X807088Y233680D02*
X812167D01*
X809627D01*
Y248915D01*
X807088Y246376D01*
X819784Y236219D02*
X822323Y233680D01*
X827402D01*
X829941Y236219D01*
Y246376D01*
X827402Y248915D01*
X822323D01*
X819784Y246376D01*
Y243837D01*
X822323Y241297D01*
X829941D01*
X835019Y233680D02*
Y236219D01*
X837558D01*
Y233680D01*
X835019D01*
X857872Y248915D02*
X852793Y246376D01*
X847715Y241297D01*
Y236219D01*
X850254Y233680D01*
X855333D01*
X857872Y236219D01*
Y238758D01*
X855333Y241297D01*
X847715D01*
X862950Y246376D02*
X865489Y248915D01*
X870568D01*
X873107Y246376D01*
Y243837D01*
X870568Y241297D01*
X873107Y238758D01*
Y236219D01*
X870568Y233680D01*
X865489D01*
X862950Y236219D01*
Y238758D01*
X865489Y241297D01*
X862950Y243837D01*
Y246376D01*
X865489Y241297D02*
X870568D01*
X888342Y248915D02*
X878185D01*
Y241297D01*
X883264Y243837D01*
X885803D01*
X888342Y241297D01*
Y236219D01*
X885803Y233680D01*
X880724D01*
X878185Y236219D01*
X893420Y233680D02*
Y243837D01*
X895959D01*
X898499Y241297D01*
Y233680D01*
Y241297D01*
X901038Y243837D01*
X903577Y241297D01*
Y233680D01*
X908655D02*
X913734D01*
X911195D01*
Y243837D01*
X908655D01*
X921351Y233680D02*
X926430D01*
X923890D01*
Y248915D01*
X921351D01*
X934047Y233680D02*
X939126Y238758D01*
Y243837D01*
X934047Y248915D01*
X1644031Y233680D02*
Y248915D01*
X1651649D01*
X1654188Y246376D01*
Y241297D01*
X1651649Y238758D01*
X1644031D01*
X1659266Y248915D02*
X1669423D01*
X1664344D01*
Y233680D01*
X1674501Y248915D02*
Y233680D01*
Y241297D01*
X1684658D01*
Y248915D01*
Y233680D01*
X1772015D02*
Y248915D01*
X1779633D01*
X1782172Y246376D01*
Y241297D01*
X1779633Y238758D01*
X1772015D01*
X1777094D02*
X1782172Y233680D01*
X1789790D02*
X1794868D01*
X1797407Y236219D01*
Y241297D01*
X1794868Y243837D01*
X1789790D01*
X1787251Y241297D01*
Y236219D01*
X1789790Y233680D01*
X1802486Y243837D02*
Y236219D01*
X1805025Y233680D01*
X1812642D01*
Y243837D01*
X1817721Y233680D02*
Y243837D01*
X1825338D01*
X1827877Y241297D01*
Y233680D01*
X1843112Y248915D02*
Y233680D01*
X1835495D01*
X1832956Y236219D01*
Y241297D01*
X1835495Y243837D01*
X1843112D01*
X528784Y215896D02*
X531324Y218435D01*
X536402D01*
X538941Y215896D01*
Y213357D01*
X536402Y210818D01*
X533863D01*
X536402D01*
X538941Y208278D01*
Y205739D01*
X536402Y203200D01*
X531324D01*
X528784Y205739D01*
X544020Y215896D02*
X546559Y218435D01*
X551637D01*
X554176Y215896D01*
Y213357D01*
X551637Y210818D01*
X549098D01*
X551637D01*
X554176Y208278D01*
Y205739D01*
X551637Y203200D01*
X546559D01*
X544020Y205739D01*
X705521Y215896D02*
X708060Y218435D01*
X713139D01*
X715678Y215896D01*
Y205739D01*
X713139Y203200D01*
X708060D01*
X705521Y205739D01*
Y215896D01*
X720756Y203200D02*
Y205739D01*
X723295D01*
Y203200D01*
X720756D01*
X733452Y205739D02*
X735991Y203200D01*
X741070D01*
X743609Y205739D01*
Y215896D01*
X741070Y218435D01*
X735991D01*
X733452Y215896D01*
Y213357D01*
X735991Y210818D01*
X743609D01*
X748687Y203200D02*
Y213357D01*
X751226D01*
X753765Y210818D01*
Y203200D01*
Y210818D01*
X756305Y213357D01*
X758844Y210818D01*
Y203200D01*
X763922D02*
Y213357D01*
X766461D01*
X769000Y210818D01*
Y203200D01*
Y210818D01*
X771540Y213357D01*
X774079Y210818D01*
Y203200D01*
X799471D02*
X794392Y208278D01*
Y213357D01*
X799471Y218435D01*
X807088Y215896D02*
X809627Y218435D01*
X814706D01*
X817245Y215896D01*
Y213357D01*
X814706Y210818D01*
X812167D01*
X814706D01*
X817245Y208278D01*
Y205739D01*
X814706Y203200D01*
X809627D01*
X807088Y205739D01*
X832480Y218435D02*
X822323D01*
Y210818D01*
X827402Y213357D01*
X829941D01*
X832480Y210818D01*
Y205739D01*
X829941Y203200D01*
X824863D01*
X822323Y205739D01*
X837558Y203200D02*
Y205739D01*
X840098D01*
Y203200D01*
X837558D01*
X857872D02*
Y218435D01*
X850254Y210818D01*
X860411D01*
X865489Y215896D02*
X868028Y218435D01*
X873107D01*
X875646Y215896D01*
Y213357D01*
X873107Y210818D01*
X870568D01*
X873107D01*
X875646Y208278D01*
Y205739D01*
X873107Y203200D01*
X868028D01*
X865489Y205739D01*
X880724Y215896D02*
X883264Y218435D01*
X888342D01*
X890881Y215896D01*
Y213357D01*
X888342Y210818D01*
X885803D01*
X888342D01*
X890881Y208278D01*
Y205739D01*
X888342Y203200D01*
X883264D01*
X880724Y205739D01*
X895959Y203200D02*
Y213357D01*
X898499D01*
X901038Y210818D01*
Y203200D01*
Y210818D01*
X903577Y213357D01*
X906116Y210818D01*
Y203200D01*
X911195D02*
X916273D01*
X913734D01*
Y213357D01*
X911195D01*
X923890Y203200D02*
X928969D01*
X926430D01*
Y218435D01*
X923890D01*
X936586Y203200D02*
X941665Y208278D01*
Y213357D01*
X936586Y218435D01*
X1644031Y203200D02*
Y218435D01*
X1651649D01*
X1654188Y215896D01*
Y210818D01*
X1651649Y208278D01*
X1644031D01*
X1659266Y218435D02*
X1669423D01*
X1664344D01*
Y203200D01*
X1674501Y218435D02*
Y203200D01*
Y210818D01*
X1684658D01*
Y218435D01*
Y203200D01*
X1772015D02*
Y218435D01*
X1779633D01*
X1782172Y215896D01*
Y210818D01*
X1779633Y208278D01*
X1772015D01*
X1777094D02*
X1782172Y203200D01*
X1789790D02*
X1794868D01*
X1797407Y205739D01*
Y210818D01*
X1794868Y213357D01*
X1789790D01*
X1787251Y210818D01*
Y205739D01*
X1789790Y203200D01*
X1802486Y213357D02*
Y205739D01*
X1805025Y203200D01*
X1812642D01*
Y213357D01*
X1817721Y203200D02*
Y213357D01*
X1825338D01*
X1827877Y210818D01*
Y203200D01*
X1843112Y218435D02*
Y203200D01*
X1835495D01*
X1832956Y205739D01*
Y210818D01*
X1835495Y213357D01*
X1843112D01*
X538941Y172720D02*
X528784D01*
X538941Y182877D01*
Y185416D01*
X536402Y187955D01*
X531324D01*
X528784Y185416D01*
X705521D02*
X708060Y187955D01*
X713139D01*
X715678Y185416D01*
Y175259D01*
X713139Y172720D01*
X708060D01*
X705521Y175259D01*
Y185416D01*
X720756Y172720D02*
Y175259D01*
X723295D01*
Y172720D01*
X720756D01*
X743609Y187955D02*
X738530Y185416D01*
X733452Y180338D01*
Y175259D01*
X735991Y172720D01*
X741070D01*
X743609Y175259D01*
Y177798D01*
X741070Y180338D01*
X733452D01*
X758844Y187955D02*
X748687D01*
Y180338D01*
X753765Y182877D01*
X756305D01*
X758844Y180338D01*
Y175259D01*
X756305Y172720D01*
X751226D01*
X748687Y175259D01*
X763922Y172720D02*
Y182877D01*
X766461D01*
X769000Y180338D01*
Y172720D01*
Y180338D01*
X771540Y182877D01*
X774079Y180338D01*
Y172720D01*
X779157D02*
Y182877D01*
X781696D01*
X784236Y180338D01*
Y172720D01*
Y180338D01*
X786775Y182877D01*
X789314Y180338D01*
Y172720D01*
X814706D02*
X809627Y177798D01*
Y182877D01*
X814706Y187955D01*
X832480Y172720D02*
X822323D01*
X832480Y182877D01*
Y185416D01*
X829941Y187955D01*
X824863D01*
X822323Y185416D01*
X847715Y187955D02*
X837558D01*
Y180338D01*
X842637Y182877D01*
X845176D01*
X847715Y180338D01*
Y175259D01*
X845176Y172720D01*
X840098D01*
X837558Y175259D01*
X852793Y172720D02*
Y175259D01*
X855333D01*
Y172720D01*
X852793D01*
X875646Y187955D02*
X865489D01*
Y180338D01*
X870568Y182877D01*
X873107D01*
X875646Y180338D01*
Y175259D01*
X873107Y172720D01*
X868028D01*
X865489Y175259D01*
X880724D02*
X883264Y172720D01*
X888342D01*
X890881Y175259D01*
Y185416D01*
X888342Y187955D01*
X883264D01*
X880724Y185416D01*
Y182877D01*
X883264Y180338D01*
X890881D01*
X895959Y172720D02*
X901038D01*
X898499D01*
Y187955D01*
X895959Y185416D01*
X908655Y172720D02*
Y182877D01*
X911195D01*
X913734Y180338D01*
Y172720D01*
Y180338D01*
X916273Y182877D01*
X918812Y180338D01*
Y172720D01*
X923890D02*
X928969D01*
X926430D01*
Y182877D01*
X923890D01*
X936586Y172720D02*
X941665D01*
X939126D01*
Y187955D01*
X936586D01*
X949282Y172720D02*
X954361Y177798D01*
Y182877D01*
X949282Y187955D01*
X1046796Y185416D02*
X1049336Y187955D01*
X1054414D01*
X1056953Y185416D01*
Y175259D01*
X1054414Y172720D01*
X1049336D01*
X1046796Y175259D01*
Y185416D01*
X1062032Y172720D02*
Y175259D01*
X1064571D01*
Y172720D01*
X1062032D01*
X1074727Y185416D02*
X1077267Y187955D01*
X1082345D01*
X1084884Y185416D01*
Y182877D01*
X1082345Y180338D01*
X1084884Y177798D01*
Y175259D01*
X1082345Y172720D01*
X1077267D01*
X1074727Y175259D01*
Y177798D01*
X1077267Y180338D01*
X1074727Y182877D01*
Y185416D01*
X1077267Y180338D02*
X1082345D01*
X1100119Y187955D02*
X1089962D01*
Y180338D01*
X1095041Y182877D01*
X1097580D01*
X1100119Y180338D01*
Y175259D01*
X1097580Y172720D01*
X1092502D01*
X1089962Y175259D01*
X1105198Y172720D02*
Y182877D01*
X1107737D01*
X1110276Y180338D01*
Y172720D01*
Y180338D01*
X1112815Y182877D01*
X1115354Y180338D01*
Y172720D01*
X1120433D02*
Y182877D01*
X1122972D01*
X1125511Y180338D01*
Y172720D01*
Y180338D01*
X1128050Y182877D01*
X1130589Y180338D01*
Y172720D01*
X1155981D02*
X1150903Y177798D01*
Y182877D01*
X1155981Y187955D01*
X1163599Y185416D02*
X1166138Y187955D01*
X1171216D01*
X1173755Y185416D01*
Y182877D01*
X1171216Y180338D01*
X1168677D01*
X1171216D01*
X1173755Y177798D01*
Y175259D01*
X1171216Y172720D01*
X1166138D01*
X1163599Y175259D01*
X1178834Y185416D02*
X1181373Y187955D01*
X1186451D01*
X1188990Y185416D01*
Y182877D01*
X1186451Y180338D01*
X1183912D01*
X1186451D01*
X1188990Y177798D01*
Y175259D01*
X1186451Y172720D01*
X1181373D01*
X1178834Y175259D01*
X1194069Y172720D02*
Y175259D01*
X1196608D01*
Y172720D01*
X1194069D01*
X1214382D02*
Y187955D01*
X1206765Y180338D01*
X1216921D01*
X1232157Y187955D02*
X1227078Y185416D01*
X1222000Y180338D01*
Y175259D01*
X1224539Y172720D01*
X1229617D01*
X1232157Y175259D01*
Y177798D01*
X1229617Y180338D01*
X1222000D01*
X1247392Y187955D02*
X1237235D01*
Y180338D01*
X1242313Y182877D01*
X1244852D01*
X1247392Y180338D01*
Y175259D01*
X1244852Y172720D01*
X1239774D01*
X1237235Y175259D01*
X1252470Y172720D02*
Y182877D01*
X1255009D01*
X1257548Y180338D01*
Y172720D01*
Y180338D01*
X1260088Y182877D01*
X1262627Y180338D01*
Y172720D01*
X1267705D02*
X1272783D01*
X1270244D01*
Y182877D01*
X1267705D01*
X1280401Y172720D02*
X1285479D01*
X1282940D01*
Y187955D01*
X1280401D01*
X1293097Y172720D02*
X1298175Y177798D01*
Y182877D01*
X1293097Y187955D01*
X1336273Y185416D02*
X1338812Y187955D01*
X1343890D01*
X1346429Y185416D01*
Y175259D01*
X1343890Y172720D01*
X1338812D01*
X1336273Y175259D01*
Y185416D01*
X1351508Y172720D02*
Y175259D01*
X1354047D01*
Y172720D01*
X1351508D01*
X1374360D02*
X1364204D01*
X1374360Y182877D01*
Y185416D01*
X1371821Y187955D01*
X1366743D01*
X1364204Y185416D01*
X1379439Y172720D02*
Y182877D01*
X1381978D01*
X1384517Y180338D01*
Y172720D01*
Y180338D01*
X1387056Y182877D01*
X1389595Y180338D01*
Y172720D01*
X1394674D02*
Y182877D01*
X1397213D01*
X1399752Y180338D01*
Y172720D01*
Y180338D01*
X1402291Y182877D01*
X1404830Y180338D01*
Y172720D01*
X1430222D02*
X1425144Y177798D01*
Y182877D01*
X1430222Y187955D01*
X1437840D02*
X1447997D01*
Y185416D01*
X1437840Y175259D01*
Y172720D01*
X1453075D02*
Y175259D01*
X1455614D01*
Y172720D01*
X1453075D01*
X1465771Y185416D02*
X1468310Y187955D01*
X1473388D01*
X1475927Y185416D01*
Y182877D01*
X1473388Y180338D01*
X1475927Y177798D01*
Y175259D01*
X1473388Y172720D01*
X1468310D01*
X1465771Y175259D01*
Y177798D01*
X1468310Y180338D01*
X1465771Y182877D01*
Y185416D01*
X1468310Y180338D02*
X1473388D01*
X1481006Y187955D02*
X1491163D01*
Y185416D01*
X1481006Y175259D01*
Y172720D01*
X1503858D02*
Y187955D01*
X1496241Y180338D01*
X1506398D01*
X1511476Y172720D02*
Y182877D01*
X1514015D01*
X1516554Y180338D01*
Y172720D01*
Y180338D01*
X1519093Y182877D01*
X1521633Y180338D01*
Y172720D01*
X1526711D02*
X1531789D01*
X1529250D01*
Y182877D01*
X1526711D01*
X1539407Y172720D02*
X1544485D01*
X1541946D01*
Y187955D01*
X1539407D01*
X1552103Y172720D02*
X1557181Y177798D01*
Y182877D01*
X1552103Y187955D01*
X1644031Y172720D02*
Y187955D01*
X1651649D01*
X1654188Y185416D01*
Y180338D01*
X1651649Y177798D01*
X1644031D01*
X1659266Y187955D02*
X1669423D01*
X1664344D01*
Y172720D01*
X1674501Y187955D02*
Y172720D01*
Y180338D01*
X1684658D01*
Y187955D01*
Y172720D01*
X1782172Y185416D02*
X1779633Y187955D01*
X1774555D01*
X1772015Y185416D01*
Y182877D01*
X1774555Y180338D01*
X1779633D01*
X1782172Y177798D01*
Y175259D01*
X1779633Y172720D01*
X1774555D01*
X1772015Y175259D01*
X1787251Y172720D02*
X1792329D01*
X1789790D01*
Y187955D01*
X1787251D01*
X1802486Y172720D02*
X1807564D01*
X1810103Y175259D01*
Y180338D01*
X1807564Y182877D01*
X1802486D01*
X1799946Y180338D01*
Y175259D01*
X1802486Y172720D01*
X1817721Y185416D02*
Y182877D01*
X1815181D01*
X1820260D01*
X1817721D01*
Y175259D01*
X1820260Y172720D01*
X538941Y142240D02*
X528784D01*
X538941Y152397D01*
Y154936D01*
X536402Y157475D01*
X531324D01*
X528784Y154936D01*
X705521D02*
X708060Y157475D01*
X713139D01*
X715678Y154936D01*
Y144779D01*
X713139Y142240D01*
X708060D01*
X705521Y144779D01*
Y154936D01*
X720756Y142240D02*
Y144779D01*
X723295D01*
Y142240D01*
X720756D01*
X733452Y154936D02*
X735991Y157475D01*
X741070D01*
X743609Y154936D01*
Y152397D01*
X741070Y149858D01*
X743609Y147318D01*
Y144779D01*
X741070Y142240D01*
X735991D01*
X733452Y144779D01*
Y147318D01*
X735991Y149858D01*
X733452Y152397D01*
Y154936D01*
X735991Y149858D02*
X741070D01*
X758844Y142240D02*
X748687D01*
X758844Y152397D01*
Y154936D01*
X756305Y157475D01*
X751226D01*
X748687Y154936D01*
X774079Y157475D02*
X763922D01*
Y149858D01*
X769000Y152397D01*
X771540D01*
X774079Y149858D01*
Y144779D01*
X771540Y142240D01*
X766461D01*
X763922Y144779D01*
X779157Y142240D02*
Y152397D01*
X781696D01*
X784236Y149858D01*
Y142240D01*
Y149858D01*
X786775Y152397D01*
X789314Y149858D01*
Y142240D01*
X794392D02*
Y152397D01*
X796932D01*
X799471Y149858D01*
Y142240D01*
Y149858D01*
X802010Y152397D01*
X804549Y149858D01*
Y142240D01*
X829941D02*
X824863Y147318D01*
Y152397D01*
X829941Y157475D01*
X837558Y154936D02*
X840098Y157475D01*
X845176D01*
X847715Y154936D01*
Y152397D01*
X845176Y149858D01*
X842637D01*
X845176D01*
X847715Y147318D01*
Y144779D01*
X845176Y142240D01*
X840098D01*
X837558Y144779D01*
X862950Y142240D02*
X852793D01*
X862950Y152397D01*
Y154936D01*
X860411Y157475D01*
X855333D01*
X852793Y154936D01*
X868028Y142240D02*
Y144779D01*
X870568D01*
Y142240D01*
X868028D01*
X888342D02*
Y157475D01*
X880724Y149858D01*
X890881D01*
X895959Y154936D02*
X898499Y157475D01*
X903577D01*
X906116Y154936D01*
Y152397D01*
X903577Y149858D01*
X906116Y147318D01*
Y144779D01*
X903577Y142240D01*
X898499D01*
X895959Y144779D01*
Y147318D01*
X898499Y149858D01*
X895959Y152397D01*
Y154936D01*
X898499Y149858D02*
X903577D01*
X911195Y142240D02*
Y152397D01*
X913734D01*
X916273Y149858D01*
Y142240D01*
Y149858D01*
X918812Y152397D01*
X921351Y149858D01*
Y142240D01*
X926430D02*
X931508D01*
X928969D01*
Y152397D01*
X926430D01*
X939126Y142240D02*
X944204D01*
X941665D01*
Y157475D01*
X939126D01*
X951821Y142240D02*
X956900Y147318D01*
Y152397D01*
X951821Y157475D01*
X1046796Y142240D02*
X1051875D01*
X1049336D01*
Y157475D01*
X1046796Y154936D01*
X1059492Y142240D02*
Y144779D01*
X1062032D01*
Y142240D01*
X1059492D01*
X1082345Y157475D02*
X1072188D01*
Y149858D01*
X1077267Y152397D01*
X1079806D01*
X1082345Y149858D01*
Y144779D01*
X1079806Y142240D01*
X1074727D01*
X1072188Y144779D01*
X1087423Y142240D02*
Y152397D01*
X1089962D01*
X1092502Y149858D01*
Y142240D01*
Y149858D01*
X1095041Y152397D01*
X1097580Y149858D01*
Y142240D01*
X1102658D02*
Y152397D01*
X1105198D01*
X1107737Y149858D01*
Y142240D01*
Y149858D01*
X1110276Y152397D01*
X1112815Y149858D01*
Y142240D01*
X1138207D02*
X1133129Y147318D01*
Y152397D01*
X1138207Y157475D01*
X1155981D02*
X1145825D01*
Y149858D01*
X1150903Y152397D01*
X1153442D01*
X1155981Y149858D01*
Y144779D01*
X1153442Y142240D01*
X1148364D01*
X1145825Y144779D01*
X1161059D02*
X1163599Y142240D01*
X1168677D01*
X1171216Y144779D01*
Y154936D01*
X1168677Y157475D01*
X1163599D01*
X1161059Y154936D01*
Y152397D01*
X1163599Y149858D01*
X1171216D01*
X1176295Y142240D02*
Y144779D01*
X1178834D01*
Y142240D01*
X1176295D01*
X1188990Y154936D02*
X1191530Y157475D01*
X1196608D01*
X1199147Y154936D01*
Y144779D01*
X1196608Y142240D01*
X1191530D01*
X1188990Y144779D01*
Y154936D01*
X1214382Y157475D02*
X1204226D01*
Y149858D01*
X1209304Y152397D01*
X1211843D01*
X1214382Y149858D01*
Y144779D01*
X1211843Y142240D01*
X1206765D01*
X1204226Y144779D01*
X1229617Y157475D02*
X1219461D01*
Y149858D01*
X1224539Y152397D01*
X1227078D01*
X1229617Y149858D01*
Y144779D01*
X1227078Y142240D01*
X1222000D01*
X1219461Y144779D01*
X1234696Y142240D02*
Y152397D01*
X1237235D01*
X1239774Y149858D01*
Y142240D01*
Y149858D01*
X1242313Y152397D01*
X1244852Y149858D01*
Y142240D01*
X1249931D02*
X1255009D01*
X1252470D01*
Y152397D01*
X1249931D01*
X1262627Y142240D02*
X1267705D01*
X1265166D01*
Y157475D01*
X1262627D01*
X1275322Y142240D02*
X1280401Y147318D01*
Y152397D01*
X1275322Y157475D01*
X1336273Y154936D02*
X1338812Y157475D01*
X1343890D01*
X1346429Y154936D01*
Y144779D01*
X1343890Y142240D01*
X1338812D01*
X1336273Y144779D01*
Y154936D01*
X1351508Y142240D02*
Y144779D01*
X1354047D01*
Y142240D01*
X1351508D01*
X1374360Y157475D02*
X1369282Y154936D01*
X1364204Y149858D01*
Y144779D01*
X1366743Y142240D01*
X1371821D01*
X1374360Y144779D01*
Y147318D01*
X1371821Y149858D01*
X1364204D01*
X1379439Y157475D02*
X1389595D01*
Y154936D01*
X1379439Y144779D01*
Y142240D01*
X1404830Y157475D02*
X1394674D01*
Y149858D01*
X1399752Y152397D01*
X1402291D01*
X1404830Y149858D01*
Y144779D01*
X1402291Y142240D01*
X1397213D01*
X1394674Y144779D01*
X1409909Y142240D02*
Y152397D01*
X1412448D01*
X1414987Y149858D01*
Y142240D01*
Y149858D01*
X1417526Y152397D01*
X1420066Y149858D01*
Y142240D01*
X1425144D02*
Y152397D01*
X1427683D01*
X1430222Y149858D01*
Y142240D01*
Y149858D01*
X1432762Y152397D01*
X1435301Y149858D01*
Y142240D01*
X1460692D02*
X1455614Y147318D01*
Y152397D01*
X1460692Y157475D01*
X1478467Y142240D02*
X1468310D01*
X1478467Y152397D01*
Y154936D01*
X1475927Y157475D01*
X1470849D01*
X1468310Y154936D01*
X1493702Y157475D02*
X1488623Y154936D01*
X1483545Y149858D01*
Y144779D01*
X1486084Y142240D01*
X1491163D01*
X1493702Y144779D01*
Y147318D01*
X1491163Y149858D01*
X1483545D01*
X1498780Y142240D02*
Y144779D01*
X1501319D01*
Y142240D01*
X1498780D01*
X1521633Y157475D02*
X1511476D01*
Y149858D01*
X1516554Y152397D01*
X1519093D01*
X1521633Y149858D01*
Y144779D01*
X1519093Y142240D01*
X1514015D01*
X1511476Y144779D01*
X1526711Y157475D02*
X1536868D01*
Y154936D01*
X1526711Y144779D01*
Y142240D01*
X1552103Y157475D02*
X1541946D01*
Y149858D01*
X1547025Y152397D01*
X1549564D01*
X1552103Y149858D01*
Y144779D01*
X1549564Y142240D01*
X1544485D01*
X1541946Y144779D01*
X1557181Y142240D02*
Y152397D01*
X1559720D01*
X1562260Y149858D01*
Y142240D01*
Y149858D01*
X1564799Y152397D01*
X1567338Y149858D01*
Y142240D01*
X1572416D02*
X1577495D01*
X1574955D01*
Y152397D01*
X1572416D01*
X1585112Y142240D02*
X1590190D01*
X1587651D01*
Y157475D01*
X1585112D01*
X1597808Y142240D02*
X1602886Y147318D01*
Y152397D01*
X1597808Y157475D01*
X1644031Y142240D02*
Y157475D01*
X1651649D01*
X1654188Y154936D01*
Y149858D01*
X1651649Y147318D01*
X1644031D01*
X1659266Y157475D02*
X1669423D01*
X1664344D01*
Y142240D01*
X1674501Y157475D02*
Y142240D01*
Y149858D01*
X1684658D01*
Y157475D01*
Y142240D01*
X1782172Y154936D02*
X1779633Y157475D01*
X1774555D01*
X1772015Y154936D01*
Y152397D01*
X1774555Y149858D01*
X1779633D01*
X1782172Y147318D01*
Y144779D01*
X1779633Y142240D01*
X1774555D01*
X1772015Y144779D01*
X1787251Y142240D02*
X1792329D01*
X1789790D01*
Y157475D01*
X1787251D01*
X1802486Y142240D02*
X1807564D01*
X1810103Y144779D01*
Y149858D01*
X1807564Y152397D01*
X1802486D01*
X1799946Y149858D01*
Y144779D01*
X1802486Y142240D01*
X1817721Y154936D02*
Y152397D01*
X1815181D01*
X1820260D01*
X1817721D01*
Y144779D01*
X1820260Y142240D01*
X528784Y126995D02*
X538941D01*
Y124456D01*
X528784Y114299D01*
Y111760D01*
X544020Y114299D02*
X546559Y111760D01*
X551637D01*
X554176Y114299D01*
Y124456D01*
X551637Y126995D01*
X546559D01*
X544020Y124456D01*
Y121917D01*
X546559Y119377D01*
X554176D01*
X581608Y126995D02*
X591765D01*
X586687D01*
Y111760D01*
X599383D02*
X604461D01*
X607000Y114299D01*
Y119377D01*
X604461Y121917D01*
X599383D01*
X596843Y119377D01*
Y114299D01*
X599383Y111760D01*
X614618Y124456D02*
Y121917D01*
X612078D01*
X617157D01*
X614618D01*
Y114299D01*
X617157Y111760D01*
X627313Y121917D02*
X632392D01*
X634931Y119377D01*
Y111760D01*
X627313D01*
X624774Y114299D01*
X627313Y116838D01*
X634931D01*
X640009Y111760D02*
X645088D01*
X642549D01*
Y126995D01*
X640009D01*
X927437Y86358D02*
X937594D01*
X927437Y91437D02*
X937594D01*
X968064Y93976D02*
X965525Y96515D01*
X960447D01*
X957908Y93976D01*
Y83819D01*
X960447Y81280D01*
X965525D01*
X968064Y83819D01*
X975682Y91437D02*
X980760D01*
X983299Y88897D01*
Y81280D01*
X975682D01*
X973143Y83819D01*
X975682Y86358D01*
X983299D01*
X988378Y81280D02*
X993456D01*
X990917D01*
Y96515D01*
X988378D01*
X1011230Y91437D02*
X1003613D01*
X1001074Y88897D01*
Y83819D01*
X1003613Y81280D01*
X1011230D01*
X1016309Y91437D02*
Y83819D01*
X1018848Y81280D01*
X1026465D01*
Y91437D01*
X1031544Y81280D02*
X1036622D01*
X1034083D01*
Y96515D01*
X1031544D01*
X1046779Y91437D02*
X1051857D01*
X1054396Y88897D01*
Y81280D01*
X1046779D01*
X1044240Y83819D01*
X1046779Y86358D01*
X1054396D01*
X1062014Y93976D02*
Y91437D01*
X1059475D01*
X1064553D01*
X1062014D01*
Y83819D01*
X1064553Y81280D01*
X1079788D02*
X1074710D01*
X1072171Y83819D01*
Y88897D01*
X1074710Y91437D01*
X1079788D01*
X1082327Y88897D01*
Y86358D01*
X1072171D01*
X1097562Y96515D02*
Y81280D01*
X1089945D01*
X1087406Y83819D01*
Y88897D01*
X1089945Y91437D01*
X1097562D01*
X1120415Y81280D02*
Y93976D01*
Y88897D01*
X1117876D01*
X1122954D01*
X1120415D01*
Y93976D01*
X1122954Y96515D01*
X1130572Y91437D02*
Y81280D01*
Y86358D01*
X1133111Y88897D01*
X1135650Y91437D01*
X1138189D01*
X1148346Y81280D02*
X1153424D01*
X1155964Y83819D01*
Y88897D01*
X1153424Y91437D01*
X1148346D01*
X1145807Y88897D01*
Y83819D01*
X1148346Y81280D01*
X1161042D02*
Y91437D01*
X1163581D01*
X1166120Y88897D01*
Y81280D01*
Y88897D01*
X1168659Y91437D01*
X1171199Y88897D01*
Y81280D01*
X1194051Y93976D02*
Y91437D01*
X1191512D01*
X1196590D01*
X1194051D01*
Y83819D01*
X1196590Y81280D01*
X1206747D02*
X1211825D01*
X1214365Y83819D01*
Y88897D01*
X1211825Y91437D01*
X1206747D01*
X1204208Y88897D01*
Y83819D01*
X1206747Y81280D01*
X1221982D02*
X1227060D01*
X1229600Y83819D01*
Y88897D01*
X1227060Y91437D01*
X1221982D01*
X1219443Y88897D01*
Y83819D01*
X1221982Y81280D01*
X1234678D02*
X1239756D01*
X1237217D01*
Y96515D01*
X1234678D01*
X1262609Y81280D02*
X1270227D01*
X1272766Y83819D01*
X1270227Y86358D01*
X1265148D01*
X1262609Y88897D01*
X1265148Y91437D01*
X1272766D01*
X1280383Y93976D02*
Y91437D01*
X1277844D01*
X1282922D01*
X1280383D01*
Y83819D01*
X1282922Y81280D01*
X1293079Y91437D02*
X1298158D01*
X1300697Y88897D01*
Y81280D01*
X1293079D01*
X1290540Y83819D01*
X1293079Y86358D01*
X1300697D01*
X1305775Y91437D02*
Y81280D01*
Y86358D01*
X1308314Y88897D01*
X1310853Y91437D01*
X1313392D01*
X1323549Y93976D02*
Y91437D01*
X1321010D01*
X1326088D01*
X1323549D01*
Y83819D01*
X1326088Y81280D01*
X1359098Y91437D02*
X1351480D01*
X1348941Y88897D01*
Y83819D01*
X1351480Y81280D01*
X1359098D01*
X1371794D02*
X1366715D01*
X1364176Y83819D01*
Y88897D01*
X1366715Y91437D01*
X1371794D01*
X1374333Y88897D01*
Y86358D01*
X1364176D01*
X1379411Y81280D02*
Y91437D01*
X1387029D01*
X1389568Y88897D01*
Y81280D01*
X1397185Y93976D02*
Y91437D01*
X1394646D01*
X1399725D01*
X1397185D01*
Y83819D01*
X1399725Y81280D01*
X1407342Y91437D02*
Y81280D01*
Y86358D01*
X1409881Y88897D01*
X1412421Y91437D01*
X1414960D01*
X1430195Y81280D02*
X1425116D01*
X1422577Y83819D01*
Y88897D01*
X1425116Y91437D01*
X1430195D01*
X1432734Y88897D01*
Y86358D01*
X1422577D01*
X1453047Y76202D02*
Y91437D01*
X1460665D01*
X1463204Y88897D01*
Y83819D01*
X1460665Y81280D01*
X1453047D01*
X1470822D02*
X1475900D01*
X1478439Y83819D01*
Y88897D01*
X1475900Y91437D01*
X1470822D01*
X1468282Y88897D01*
Y83819D01*
X1470822Y81280D01*
X1483517D02*
X1491135D01*
X1493674Y83819D01*
X1491135Y86358D01*
X1486057D01*
X1483517Y88897D01*
X1486057Y91437D01*
X1493674D01*
X1498753Y81280D02*
X1503831D01*
X1501292D01*
Y91437D01*
X1498753D01*
X1513988Y93976D02*
Y91437D01*
X1511449D01*
X1516527D01*
X1513988D01*
Y83819D01*
X1516527Y81280D01*
X1524144D02*
X1529223D01*
X1526684D01*
Y91437D01*
X1524144D01*
X1539379Y81280D02*
X1544458D01*
X1546997Y83819D01*
Y88897D01*
X1544458Y91437D01*
X1539379D01*
X1536840Y88897D01*
Y83819D01*
X1539379Y81280D01*
X1552075D02*
Y91437D01*
X1559693D01*
X1562232Y88897D01*
Y81280D01*
X1585085Y93976D02*
Y91437D01*
X1582545D01*
X1587624D01*
X1585085D01*
Y83819D01*
X1587624Y81280D01*
X1597780D02*
X1602859D01*
X1605398Y83819D01*
Y88897D01*
X1602859Y91437D01*
X1597780D01*
X1595241Y88897D01*
Y83819D01*
X1597780Y81280D01*
X1628251Y93976D02*
Y91437D01*
X1625712D01*
X1630790D01*
X1628251D01*
Y83819D01*
X1630790Y81280D01*
X1640947D02*
X1646025D01*
X1648564Y83819D01*
Y88897D01*
X1646025Y91437D01*
X1640947D01*
X1638407Y88897D01*
Y83819D01*
X1640947Y81280D01*
X1656182D02*
X1661260D01*
X1663799Y83819D01*
Y88897D01*
X1661260Y91437D01*
X1656182D01*
X1653642Y88897D01*
Y83819D01*
X1656182Y81280D01*
X1668878D02*
X1673956D01*
X1671417D01*
Y96515D01*
X1668878D01*
X1704426Y81280D02*
X1699348D01*
X1696808Y83819D01*
Y88897D01*
X1699348Y91437D01*
X1704426D01*
X1706965Y88897D01*
Y86358D01*
X1696808D01*
X1712043Y81280D02*
Y91437D01*
X1719661D01*
X1722200Y88897D01*
Y81280D01*
X1737435Y96515D02*
Y81280D01*
X1729818D01*
X1727279Y83819D01*
Y88897D01*
X1729818Y91437D01*
X1737435D01*
X1767905D02*
X1760288D01*
X1757749Y88897D01*
Y83819D01*
X1760288Y81280D01*
X1767905D01*
X1780601D02*
X1775523D01*
X1772984Y83819D01*
Y88897D01*
X1775523Y91437D01*
X1780601D01*
X1783141Y88897D01*
Y86358D01*
X1772984D01*
X1788219Y81280D02*
Y91437D01*
X1795836D01*
X1798376Y88897D01*
Y81280D01*
X1805993Y93976D02*
Y91437D01*
X1803454D01*
X1808532D01*
X1805993D01*
Y83819D01*
X1808532Y81280D01*
X1816150Y91437D02*
Y81280D01*
Y86358D01*
X1818689Y88897D01*
X1821228Y91437D01*
X1823767D01*
X1839003Y81280D02*
X1833924D01*
X1831385Y83819D01*
Y88897D01*
X1833924Y91437D01*
X1839003D01*
X1841542Y88897D01*
Y86358D01*
X1831385D01*
X1861855Y76202D02*
Y91437D01*
X1869473D01*
X1872012Y88897D01*
Y83819D01*
X1869473Y81280D01*
X1861855D01*
X1879629D02*
X1884708D01*
X1887247Y83819D01*
Y88897D01*
X1884708Y91437D01*
X1879629D01*
X1877090Y88897D01*
Y83819D01*
X1879629Y81280D01*
X1892325D02*
X1899943D01*
X1902482Y83819D01*
X1899943Y86358D01*
X1894864D01*
X1892325Y88897D01*
X1894864Y91437D01*
X1902482D01*
X1907560Y81280D02*
X1912639D01*
X1910099D01*
Y91437D01*
X1907560D01*
X1922795Y93976D02*
Y91437D01*
X1920256D01*
X1925334D01*
X1922795D01*
Y83819D01*
X1925334Y81280D01*
X1932952D02*
X1938030D01*
X1935491D01*
Y91437D01*
X1932952D01*
X1948187Y81280D02*
X1953266D01*
X1955805Y83819D01*
Y88897D01*
X1953266Y91437D01*
X1948187D01*
X1945648Y88897D01*
Y83819D01*
X1948187Y81280D01*
X1960883D02*
Y91437D01*
X1968501D01*
X1971040Y88897D01*
Y81280D01*
X1976118D02*
Y83819D01*
X1978657D01*
Y81280D01*
X1976118D01*
X927437Y55878D02*
X937594D01*
X927437Y60957D02*
X937594D01*
X957908Y50800D02*
Y66035D01*
X965525D01*
X968064Y63496D01*
Y58418D01*
X965525Y55878D01*
X957908D01*
X962986D02*
X968064Y50800D01*
X975682D02*
X980760D01*
X983299Y53339D01*
Y58418D01*
X980760Y60957D01*
X975682D01*
X973143Y58418D01*
Y53339D01*
X975682Y50800D01*
X988378Y60957D02*
Y53339D01*
X990917Y50800D01*
X998534D01*
Y60957D01*
X1006152Y63496D02*
Y60957D01*
X1003613D01*
X1008691D01*
X1006152D01*
Y53339D01*
X1008691Y50800D01*
X1031544D02*
Y66035D01*
X1039161D01*
X1041701Y63496D01*
Y58418D01*
X1039161Y55878D01*
X1031544D01*
X1049318Y60957D02*
X1054396D01*
X1056936Y58418D01*
Y50800D01*
X1049318D01*
X1046779Y53339D01*
X1049318Y55878D01*
X1056936D01*
X1064553Y63496D02*
Y60957D01*
X1062014D01*
X1067092D01*
X1064553D01*
Y53339D01*
X1067092Y50800D01*
X1074710Y66035D02*
Y50800D01*
Y58418D01*
X1077249Y60957D01*
X1082327D01*
X1084866Y58418D01*
Y50800D01*
X1105180Y66035D02*
Y50800D01*
X1115337D01*
X1128033D02*
X1122954D01*
X1120415Y53339D01*
Y58418D01*
X1122954Y60957D01*
X1128033D01*
X1130572Y58418D01*
Y55878D01*
X1120415D01*
X1135650Y50800D02*
Y60957D01*
X1143268D01*
X1145807Y58418D01*
Y50800D01*
X1155964Y45722D02*
X1158503D01*
X1161042Y48261D01*
Y60957D01*
X1153424D01*
X1150885Y58418D01*
Y53339D01*
X1153424Y50800D01*
X1161042D01*
X1168659Y63496D02*
Y60957D01*
X1166120D01*
X1171199D01*
X1168659D01*
Y53339D01*
X1171199Y50800D01*
X1178816Y66035D02*
Y50800D01*
Y58418D01*
X1181355Y60957D01*
X1186434D01*
X1188973Y58418D01*
Y50800D01*
X1209286Y58418D02*
X1219443D01*
X1214365Y63496D02*
Y53339D01*
X1239756Y66035D02*
X1249913D01*
X1244835D01*
Y50800D01*
X1257531D02*
X1262609D01*
X1265148Y53339D01*
Y58418D01*
X1262609Y60957D01*
X1257531D01*
X1254992Y58418D01*
Y53339D01*
X1257531Y50800D01*
X1272766D02*
X1277844D01*
X1280383Y53339D01*
Y58418D01*
X1277844Y60957D01*
X1272766D01*
X1270227Y58418D01*
Y53339D01*
X1272766Y50800D01*
X1285462D02*
X1290540D01*
X1288001D01*
Y66035D01*
X1285462D01*
X1323549Y63496D02*
X1321010Y66035D01*
X1315932D01*
X1313393Y63496D01*
Y60957D01*
X1315932Y58418D01*
X1321010D01*
X1323549Y55878D01*
Y53339D01*
X1321010Y50800D01*
X1315932D01*
X1313393Y53339D01*
X1328628Y50800D02*
X1333706D01*
X1331167D01*
Y60957D01*
X1328628D01*
X1341324D02*
X1351480D01*
X1341324Y50800D01*
X1351480D01*
X1364176D02*
X1359098D01*
X1356559Y53339D01*
Y58418D01*
X1359098Y60957D01*
X1364176D01*
X1366715Y58418D01*
Y55878D01*
X1356559D01*
X1387029D02*
X1397186D01*
X1387029Y60957D02*
X1397186D01*
X1427656Y63496D02*
X1425116Y66035D01*
X1420038D01*
X1417499Y63496D01*
Y60957D01*
X1420038Y58418D01*
X1425116D01*
X1427656Y55878D01*
Y53339D01*
X1425116Y50800D01*
X1420038D01*
X1417499Y53339D01*
X1432734Y50800D02*
X1437812D01*
X1435273D01*
Y66035D01*
X1432734D01*
X1447969Y50800D02*
X1453047D01*
X1455587Y53339D01*
Y58418D01*
X1453047Y60957D01*
X1447969D01*
X1445430Y58418D01*
Y53339D01*
X1447969Y50800D01*
X1463204Y63496D02*
Y60957D01*
X1460665D01*
X1465743D01*
X1463204D01*
Y53339D01*
X1465743Y50800D01*
X1488596D02*
X1493674D01*
X1491135D01*
Y66035D01*
X1488596D01*
X1508909Y50800D02*
X1503831D01*
X1501292Y53339D01*
Y58418D01*
X1503831Y60957D01*
X1508909D01*
X1511449Y58418D01*
Y55878D01*
X1501292D01*
X1516527Y50800D02*
Y60957D01*
X1524144D01*
X1526684Y58418D01*
Y50800D01*
X1536840Y45722D02*
X1539379D01*
X1541919Y48261D01*
Y60957D01*
X1534301D01*
X1531762Y58418D01*
Y53339D01*
X1534301Y50800D01*
X1541919D01*
X1549536Y63496D02*
Y60957D01*
X1546997D01*
X1552075D01*
X1549536D01*
Y53339D01*
X1552075Y50800D01*
X1559693Y66035D02*
Y50800D01*
Y58418D01*
X1562232Y60957D01*
X1567310D01*
X1569850Y58418D01*
Y50800D01*
X1592702Y60957D02*
X1597780D01*
X1600320Y58418D01*
Y50800D01*
X1592702D01*
X1590163Y53339D01*
X1592702Y55878D01*
X1600320D01*
X1605398Y50800D02*
X1613016D01*
X1615555Y53339D01*
X1613016Y55878D01*
X1607937D01*
X1605398Y58418D01*
X1607937Y60957D01*
X1615555D01*
X1646025Y66035D02*
Y50800D01*
X1638407D01*
X1635868Y53339D01*
Y58418D01*
X1638407Y60957D01*
X1646025D01*
X1658721Y50800D02*
X1653642D01*
X1651103Y53339D01*
Y58418D01*
X1653642Y60957D01*
X1658721D01*
X1661260Y58418D01*
Y55878D01*
X1651103D01*
X1668878Y50800D02*
Y63496D01*
Y58418D01*
X1666338D01*
X1671417D01*
X1668878D01*
Y63496D01*
X1671417Y66035D01*
X1679034Y50800D02*
X1684113D01*
X1681573D01*
Y60957D01*
X1679034D01*
X1691730Y50800D02*
Y60957D01*
X1699348D01*
X1701887Y58418D01*
Y50800D01*
X1714583D02*
X1709504D01*
X1706965Y53339D01*
Y58418D01*
X1709504Y60957D01*
X1714583D01*
X1717122Y58418D01*
Y55878D01*
X1706965D01*
X1732357Y66035D02*
Y50800D01*
X1724740D01*
X1722200Y53339D01*
Y58418D01*
X1724740Y60957D01*
X1732357D01*
X1752670Y50800D02*
X1757749D01*
X1755210D01*
Y60957D01*
X1752670D01*
X1765366Y50800D02*
Y60957D01*
X1772984D01*
X1775523Y58418D01*
Y50800D01*
X1798376Y63496D02*
Y60957D01*
X1795836D01*
X1800915D01*
X1798376D01*
Y53339D01*
X1800915Y50800D01*
X1808532Y66035D02*
Y50800D01*
Y58418D01*
X1811071Y60957D01*
X1816150D01*
X1818689Y58418D01*
Y50800D01*
X1831385D02*
X1826307D01*
X1823767Y53339D01*
Y58418D01*
X1826307Y60957D01*
X1831385D01*
X1833924Y58418D01*
Y55878D01*
X1823767D01*
X1854238Y50800D02*
Y66035D01*
X1861855D01*
X1864394Y63496D01*
Y58418D01*
X1861855Y55878D01*
X1854238D01*
X1879629Y63496D02*
X1877090Y66035D01*
X1872012D01*
X1869473Y63496D01*
Y53339D01*
X1872012Y50800D01*
X1877090D01*
X1879629Y53339D01*
X1884708Y66035D02*
Y50800D01*
X1892325D01*
X1894864Y53339D01*
Y55878D01*
X1892325Y58418D01*
X1884708D01*
X1892325D01*
X1894864Y60957D01*
Y63496D01*
X1892325Y66035D01*
X1884708D01*
X1915178Y50800D02*
X1920256D01*
X1917717D01*
Y66035D01*
X1915178D01*
X1930413Y60957D02*
X1935491D01*
X1938031Y58418D01*
Y50800D01*
X1930413D01*
X1927874Y53339D01*
X1930413Y55878D01*
X1938031D01*
X1943109Y60957D02*
Y53339D01*
X1945648Y50800D01*
X1953266D01*
Y48261D01*
X1950726Y45722D01*
X1948187D01*
X1953266Y50800D02*
Y60957D01*
X1960883Y50800D02*
X1965961D01*
X1968501Y53339D01*
Y58418D01*
X1965961Y60957D01*
X1960883D01*
X1958344Y58418D01*
Y53339D01*
X1960883Y50800D01*
X1973579Y60957D02*
Y53339D01*
X1976118Y50800D01*
X1983736D01*
Y60957D01*
X1991353Y63496D02*
Y60957D01*
X1988814D01*
X1993892D01*
X1991353D01*
Y53339D01*
X1993892Y50800D01*
D66*
X322968Y43368D02*
Y47432D01*
X327032D01*
Y43368D01*
X322968D01*
Y17968D02*
Y22032D01*
X327032D01*
Y17968D01*
X322968D01*
X282968Y43368D02*
Y47432D01*
X287032D01*
Y43368D01*
X282968D01*
Y17968D02*
Y22032D01*
X287032D01*
Y17968D01*
X282968D01*
X212968D02*
Y22032D01*
X217032D01*
Y17968D01*
X212968D01*
X238368D02*
Y22032D01*
X242432D01*
Y17968D01*
X238368D01*
X173768D02*
Y22032D01*
X177832D01*
Y17968D01*
X173768D01*
X148368D02*
Y22032D01*
X152432D01*
Y17968D01*
X148368D01*
X122968D02*
Y22032D01*
X127032D01*
Y17968D01*
X122968D01*
X67968Y43368D02*
Y47432D01*
X72032D01*
Y43368D01*
X67968D01*
Y17968D02*
Y22032D01*
X72032D01*
Y17968D01*
X67968D01*
X17968Y42968D02*
Y47032D01*
X22032D01*
Y42968D01*
X17968D01*
Y17568D02*
Y21632D01*
X22032D01*
Y17568D01*
X17968D01*
Y297968D02*
Y302032D01*
X22032D01*
Y297968D01*
X17968D01*
Y272568D02*
Y276632D01*
X22032D01*
Y272568D01*
X17968D01*
Y247168D02*
Y251232D01*
X22032D01*
Y247168D01*
X17968D01*
X17968Y221768D02*
Y225832D01*
X22032D01*
Y221768D01*
X17968D01*
Y196368D02*
Y200432D01*
X22032D01*
Y196368D01*
X17968D01*
X56768Y297968D02*
Y302032D01*
X60832D01*
Y297968D01*
X56768D01*
X82168D02*
Y302032D01*
X86232D01*
Y297968D01*
X82168D01*
X107568D02*
Y302032D01*
X111632D01*
Y297968D01*
X107568D01*
X132968Y297968D02*
Y302032D01*
X137032D01*
Y297968D01*
X132968D01*
X324168Y297968D02*
Y302032D01*
X328232D01*
Y297968D01*
X324168D01*
X298768Y297968D02*
Y302032D01*
X302832D01*
Y297968D01*
X298768D01*
X273368Y297968D02*
Y302032D01*
X277432D01*
Y297968D01*
X273368D01*
X247968Y297968D02*
Y302032D01*
X252032D01*
Y297968D01*
X247968D01*
X197168D02*
Y302032D01*
X201232D01*
Y297968D01*
X197168D01*
X171768Y297968D02*
Y302032D01*
X175832D01*
Y297968D01*
X171768D01*
X222568Y297968D02*
Y302032D01*
X226632D01*
Y297968D01*
X222568D01*
X305500Y182218D02*
X303468Y186282D01*
X307532D01*
X305500Y182218D01*
Y133718D02*
X303468Y137782D01*
X307532D01*
X305500Y133718D01*
X43368Y107568D02*
Y111632D01*
X47432D01*
Y107568D01*
X43368D01*
X17968D02*
Y111632D01*
X22032D01*
Y107568D01*
X17968D01*
X43368Y132968D02*
Y137032D01*
X47432D01*
Y132968D01*
X43368D01*
X17968Y132968D02*
Y137032D01*
X22032D01*
Y132968D01*
X17968D01*
X139080Y74528D02*
X140096Y75544D01*
X141112D01*
X140096Y76560D01*
X141112Y77576D01*
X140096D01*
X139080Y78592D01*
X138064Y77576D01*
X137048D01*
X138064Y76560D01*
X137048Y75544D01*
X138064D01*
X139080Y74528D01*
X157480Y97028D02*
X158496Y98044D01*
X159512D01*
X158496Y99060D01*
X159512Y100076D01*
X158496D01*
X157480Y101092D01*
X156464Y100076D01*
X155448D01*
X156464Y99060D01*
X155448Y98044D01*
X156464D01*
X157480Y97028D01*
X95250Y269748D02*
X96266Y270764D01*
X97282D01*
X96266Y271780D01*
X97282Y272796D01*
X96266D01*
X95250Y273812D01*
X94234Y272796D01*
X93218D01*
X94234Y271780D01*
X93218Y270764D01*
X94234D01*
X95250Y269748D01*
X168910Y216408D02*
X169926Y217424D01*
X170942D01*
X169926Y218440D01*
X170942Y219456D01*
X169926D01*
X168910Y220472D01*
X167894Y219456D01*
X166878D01*
X167894Y218440D01*
X166878Y217424D01*
X167894D01*
X168910Y216408D01*
X203200Y157988D02*
X204216Y159004D01*
X205232D01*
X204216Y160020D01*
X205232Y161036D01*
X204216D01*
X203200Y162052D01*
X202184Y161036D01*
X201168D01*
X202184Y160020D01*
X201168Y159004D01*
X202184D01*
X203200Y157988D01*
X99060Y206248D02*
X100076Y207264D01*
X101092D01*
X100076Y208280D01*
X101092Y209296D01*
X100076D01*
X99060Y210312D01*
X98044Y209296D01*
X97028D01*
X98044Y208280D01*
X97028Y207264D01*
X98044D01*
X99060Y206248D01*
X182880Y185928D02*
X183896Y186944D01*
X184912D01*
X183896Y187960D01*
X184912Y188976D01*
X183896D01*
X182880Y189992D01*
X181864Y188976D01*
X180848D01*
X181864Y187960D01*
X180848Y186944D01*
X181864D01*
X182880Y185928D01*
X172720D02*
X173736Y186944D01*
X174752D01*
X173736Y187960D01*
X174752Y188976D01*
X173736D01*
X172720Y189992D01*
X171704Y188976D01*
X170688D01*
X171704Y187960D01*
X170688Y186944D01*
X171704D01*
X172720Y185928D01*
X190500Y178308D02*
X191516Y179324D01*
X192532D01*
X191516Y180340D01*
X192532Y181356D01*
X191516D01*
X190500Y182372D01*
X189484Y181356D01*
X188468D01*
X189484Y180340D01*
X188468Y179324D01*
X189484D01*
X190500Y178308D01*
X264160Y182218D02*
X265176Y183234D01*
X266192D01*
X265176Y184250D01*
X266192Y185266D01*
X265176D01*
X264160Y186282D01*
X263144Y185266D01*
X262128D01*
X263144Y184250D01*
X262128Y183234D01*
X263144D01*
X264160Y182218D01*
X200660Y124968D02*
X201676Y125984D01*
X202692D01*
X201676Y127000D01*
X202692Y128016D01*
X201676D01*
X200660Y129032D01*
X199644Y128016D01*
X198628D01*
X199644Y127000D01*
X198628Y125984D01*
X199644D01*
X200660Y124968D01*
X198120Y218948D02*
X199136Y219964D01*
X200152D01*
X199136Y220980D01*
X200152Y221996D01*
X199136D01*
X198120Y223012D01*
X197104Y221996D01*
X196088D01*
X197104Y220980D01*
X196088Y219964D01*
X197104D01*
X198120Y218948D01*
X204280Y212408D02*
X205296Y213424D01*
X206312D01*
X205296Y214440D01*
X206312Y215456D01*
X205296D01*
X204280Y216472D01*
X203264Y215456D01*
X202248D01*
X203264Y214440D01*
X202248Y213424D01*
X203264D01*
X204280Y212408D01*
X250000D02*
X251016Y213424D01*
X252032D01*
X251016Y214440D01*
X252032Y215456D01*
X251016D01*
X250000Y216472D01*
X248984Y215456D01*
X247968D01*
X248984Y214440D01*
X247968Y213424D01*
X248984D01*
X250000Y212408D01*
X243840Y218948D02*
X244856Y219964D01*
X245872D01*
X244856Y220980D01*
X245872Y221996D01*
X244856D01*
X243840Y223012D01*
X242824Y221996D01*
X241808D01*
X242824Y220980D01*
X241808Y219964D01*
X242824D01*
X243840Y218948D01*
X193040Y140208D02*
X194056Y141224D01*
X195072D01*
X194056Y142240D01*
X195072Y143256D01*
X194056D01*
X193040Y144272D01*
X192024Y143256D01*
X191008D01*
X192024Y142240D01*
X191008Y141224D01*
X192024D01*
X193040Y140208D01*
X182880Y147928D02*
X183896Y148944D01*
X184912D01*
X183896Y149960D01*
X184912Y150976D01*
X183896D01*
X182880Y151992D01*
X181864Y150976D01*
X180848D01*
X181864Y149960D01*
X180848Y148944D01*
X181864D01*
X182880Y147928D01*
X92140Y199548D02*
X93156Y200564D01*
X94172D01*
X93156Y201580D01*
X94172Y202596D01*
X93156D01*
X92140Y203612D01*
X91124Y202596D01*
X90108D01*
X91124Y201580D01*
X90108Y200564D01*
X91124D01*
X92140Y199548D01*
X223520Y193548D02*
X224536Y194564D01*
X225552D01*
X224536Y195580D01*
X225552Y196596D01*
X224536D01*
X223520Y197612D01*
X222504Y196596D01*
X221488D01*
X222504Y195580D01*
X221488Y194564D01*
X222504D01*
X223520Y193548D01*
X142500Y193288D02*
X143516Y194304D01*
X144532D01*
X143516Y195320D01*
X144532Y196336D01*
X143516D01*
X142500Y197352D01*
X141484Y196336D01*
X140468D01*
X141484Y195320D01*
X140468Y194304D01*
X141484D01*
X142500Y193288D01*
X224790Y278638D02*
X225806Y279654D01*
X226822D01*
X225806Y280670D01*
X226822Y281686D01*
X225806D01*
X224790Y282702D01*
X223774Y281686D01*
X222758D01*
X223774Y280670D01*
X222758Y279654D01*
X223774D01*
X224790Y278638D01*
X168540Y103008D02*
X169556Y104024D01*
X170572D01*
X169556Y105040D01*
X170572Y106056D01*
X169556D01*
X168540Y107072D01*
X167524Y106056D01*
X166508D01*
X167524Y105040D01*
X166508Y104024D01*
X167524D01*
X168540Y103008D01*
X104140Y183388D02*
X105156Y184404D01*
X106172D01*
X105156Y185420D01*
X106172Y186436D01*
X105156D01*
X104140Y187452D01*
X103124Y186436D01*
X102108D01*
X103124Y185420D01*
X102108Y184404D01*
X103124D01*
X104140Y183388D01*
X142500Y155188D02*
X143516Y156204D01*
X144532D01*
X143516Y157220D01*
X144532Y158236D01*
X143516D01*
X142500Y159252D01*
X141484Y158236D01*
X140468D01*
X141484Y157220D01*
X140468Y156204D01*
X141484D01*
X142500Y155188D01*
X97385Y173228D02*
X98401Y174244D01*
X99417D01*
X98401Y175260D01*
X99417Y176276D01*
X98401D01*
X97385Y177292D01*
X96369Y176276D01*
X95353D01*
X96369Y175260D01*
X95353Y174244D01*
X96369D01*
X97385Y173228D01*
X158736Y260468D02*
X159752Y262500D01*
X158736Y264532D01*
X160768Y263516D01*
X162800Y264532D01*
X161784Y262500D01*
X162800Y260468D01*
X160768Y261484D01*
X158736Y260468D01*
X246380Y119888D02*
X247396Y120904D01*
X248412D01*
X247396Y121920D01*
X248412Y122936D01*
X247396D01*
X246380Y123952D01*
X245364Y122936D01*
X244348D01*
X245364Y121920D01*
X244348Y120904D01*
X245364D01*
X246380Y119888D01*
X168540Y117348D02*
X169556Y118364D01*
X170572D01*
X169556Y119380D01*
X170572Y120396D01*
X169556D01*
X168540Y121412D01*
X167524Y120396D01*
X166508D01*
X167524Y119380D01*
X166508Y118364D01*
X167524D01*
X168540Y117348D01*
X157480D02*
X158496Y118364D01*
X159512D01*
X158496Y119380D01*
X159512Y120396D01*
X158496D01*
X157480Y121412D01*
X156464Y120396D01*
X155448D01*
X156464Y119380D01*
X155448Y118364D01*
X156464D01*
X157480Y117348D01*
X127500D02*
X128516Y118364D01*
X129532D01*
X128516Y119380D01*
X129532Y120396D01*
X128516D01*
X127500Y121412D01*
X126484Y120396D01*
X125468D01*
X126484Y119380D01*
X125468Y118364D01*
X126484D01*
X127500Y117348D01*
X45000Y71628D02*
X46016Y72644D01*
X47032D01*
X46016Y73660D01*
X47032Y74676D01*
X46016D01*
X45000Y75692D01*
X43984Y74676D01*
X42968D01*
X43984Y73660D01*
X42968Y72644D01*
X43984D01*
X45000Y71628D01*
X91440Y117348D02*
X92456Y118364D01*
X93472D01*
X92456Y119380D01*
X93472Y120396D01*
X92456D01*
X91440Y121412D01*
X90424Y120396D01*
X89408D01*
X90424Y119380D01*
X89408Y118364D01*
X90424D01*
X91440Y117348D01*
X240000Y113568D02*
X241016Y114584D01*
X242032D01*
X241016Y115600D01*
X242032Y116616D01*
X241016D01*
X240000Y117632D01*
X238984Y116616D01*
X237968D01*
X238984Y115600D01*
X237968Y114584D01*
X238984D01*
X240000Y113568D01*
X308000Y91948D02*
X309016Y92964D01*
X310032D01*
X309016Y93980D01*
X310032Y94996D01*
X309016D01*
X308000Y96012D01*
X306984Y94996D01*
X305968D01*
X306984Y93980D01*
X305968Y92964D01*
X306984D01*
X308000Y91948D01*
X66040Y175768D02*
X67056Y176784D01*
X68072D01*
X67056Y177800D01*
X68072Y178816D01*
X67056D01*
X66040Y179832D01*
X65024Y178816D01*
X64008D01*
X65024Y177800D01*
X64008Y176784D01*
X65024D01*
X66040Y175768D01*
X55880Y183388D02*
X56896Y184404D01*
X57912D01*
X56896Y185420D01*
X57912Y186436D01*
X56896D01*
X55880Y187452D01*
X54864Y186436D01*
X53848D01*
X54864Y185420D01*
X53848Y184404D01*
X54864D01*
X55880Y183388D01*
X293370Y168148D02*
X294386Y169164D01*
X295402D01*
X294386Y170180D01*
X295402Y171196D01*
X294386D01*
X293370Y172212D01*
X292354Y171196D01*
X291338D01*
X292354Y170180D01*
X291338Y169164D01*
X292354D01*
X293370Y168148D01*
Y151638D02*
X294386Y152654D01*
X295402D01*
X294386Y153670D01*
X295402Y154686D01*
X294386D01*
X293370Y155702D01*
X292354Y154686D01*
X291338D01*
X292354Y153670D01*
X291338Y152654D01*
X292354D01*
X293370Y151638D01*
X152400Y278638D02*
X153416Y279654D01*
X154432D01*
X153416Y280670D01*
X154432Y281686D01*
X153416D01*
X152400Y282702D01*
X151384Y281686D01*
X150368D01*
X151384Y280670D01*
X150368Y279654D01*
X151384D01*
X152400Y278638D01*
Y269748D02*
X153416Y270764D01*
X154432D01*
X153416Y271780D01*
X154432Y272796D01*
X153416D01*
X152400Y273812D01*
X151384Y272796D01*
X150368D01*
X151384Y271780D01*
X150368Y270764D01*
X151384D01*
X152400Y269748D01*
X253160Y71628D02*
X254176Y72644D01*
X255192D01*
X254176Y73660D01*
X255192Y74676D01*
X254176D01*
X253160Y75692D01*
X252144Y74676D01*
X251128D01*
X252144Y73660D01*
X251128Y72644D01*
X252144D01*
X253160Y71628D01*
X77470Y165608D02*
X78486Y166624D01*
X79502D01*
X78486Y167640D01*
X79502Y168656D01*
X78486D01*
X77470Y169672D01*
X76454Y168656D01*
X75438D01*
X76454Y167640D01*
X75438Y166624D01*
X76454D01*
X77470Y165608D01*
X406896Y265684D02*
X409944Y268732D01*
X412992D01*
X409944Y271780D01*
X412992Y274828D01*
X409944D01*
X406896Y277876D01*
X403848Y274828D01*
X400800D01*
X403848Y271780D01*
X400800Y268732D01*
X403848D01*
X406896Y265684D01*
X400800Y235204D02*
X403848Y241300D01*
X400800Y247396D01*
X406896Y244348D01*
X412992Y247396D01*
X409944Y241300D01*
X412992Y235204D01*
X406896Y238252D01*
X400800Y235204D01*
Y204724D02*
Y216916D01*
X412992D01*
Y204724D01*
X400800D01*
X406896Y174244D02*
X400800Y186436D01*
X412992D01*
X406896Y174244D01*
D67*
X337532Y195125D02*
X336128Y197058D01*
X333856Y196319D01*
Y193931D01*
X336128Y193193D01*
X337532Y195125D01*
Y124875D02*
X336128Y126808D01*
X333856Y126069D01*
Y123681D01*
X336128Y122942D01*
X337532Y124875D01*
D68*
X412988Y315971D02*
X409941Y319018D01*
X403847D01*
X400800Y315971D01*
Y312924D01*
X403847Y309877D01*
X409941D01*
X412988Y306830D01*
Y303783D01*
X409941Y300736D01*
X403847D01*
X400800Y303783D01*
X419082Y312924D02*
Y303783D01*
X422129Y300736D01*
X431270D01*
Y297689D01*
X428223Y294642D01*
X425176D01*
X431270Y300736D02*
Y312924D01*
X437364Y300736D02*
Y312924D01*
X440411D01*
X443458Y309877D01*
Y300736D01*
Y309877D01*
X446505Y312924D01*
X449552Y309877D01*
Y300736D01*
X455646Y319018D02*
Y300736D01*
X464787D01*
X467834Y303783D01*
Y306830D01*
Y309877D01*
X464787Y312924D01*
X455646D01*
X476975Y300736D02*
X483069D01*
X486116Y303783D01*
Y309877D01*
X483069Y312924D01*
X476975D01*
X473928Y309877D01*
Y303783D01*
X476975Y300736D01*
X492210D02*
X498304D01*
X495257D01*
Y319018D01*
X492210D01*
X528784D02*
Y300736D01*
Y309877D01*
X540973D01*
Y319018D01*
Y300736D01*
X547066D02*
X553161D01*
X550113D01*
Y312924D01*
X547066D01*
X565349Y315971D02*
Y312924D01*
X562302D01*
X568396D01*
X565349D01*
Y303783D01*
X568396Y300736D01*
X608007Y315971D02*
X604960Y319018D01*
X598866D01*
X595819Y315971D01*
Y303783D01*
X598866Y300736D01*
X604960D01*
X608007Y303783D01*
X617148Y300736D02*
X623242D01*
X626289Y303783D01*
Y309877D01*
X623242Y312924D01*
X617148D01*
X614101Y309877D01*
Y303783D01*
X617148Y300736D01*
X632383Y312924D02*
Y303783D01*
X635430Y300736D01*
X644571D01*
Y312924D01*
X650665Y300736D02*
Y312924D01*
X659806D01*
X662853Y309877D01*
Y300736D01*
X671994Y315971D02*
Y312924D01*
X668947D01*
X675041D01*
X671994D01*
Y303783D01*
X675041Y300736D01*
X717709Y319018D02*
X705521D01*
Y309877D01*
X711615D01*
X705521D01*
Y300736D01*
X723803D02*
X729897D01*
X726850D01*
Y312924D01*
X723803D01*
X739038Y300736D02*
Y312924D01*
X748179D01*
X751226Y309877D01*
Y300736D01*
X757320D02*
X763414D01*
X760367D01*
Y312924D01*
X757320D01*
X772555Y300736D02*
X781696D01*
X784743Y303783D01*
X781696Y306830D01*
X775602D01*
X772555Y309877D01*
X775602Y312924D01*
X784743D01*
X790837Y319018D02*
Y300736D01*
Y309877D01*
X793885Y312924D01*
X799978D01*
X803026Y309877D01*
Y300736D01*
X818261D02*
X812167D01*
X809120Y303783D01*
Y309877D01*
X812167Y312924D01*
X818261D01*
X821308Y309877D01*
Y306830D01*
X809120D01*
X839590Y319018D02*
Y300736D01*
X830449D01*
X827402Y303783D01*
Y309877D01*
X830449Y312924D01*
X839590D01*
X863966Y319018D02*
Y300736D01*
Y309877D01*
X876154D01*
Y319018D01*
Y300736D01*
X885295D02*
X891389D01*
X894436Y303783D01*
Y309877D01*
X891389Y312924D01*
X885295D01*
X882248Y309877D01*
Y303783D01*
X885295Y300736D01*
X900530D02*
X906624D01*
X903577D01*
Y319018D01*
X900530D01*
X924906Y300736D02*
X918812D01*
X915765Y303783D01*
Y309877D01*
X918812Y312924D01*
X924906D01*
X927953Y309877D01*
Y306830D01*
X915765D01*
X964517Y315971D02*
X961470Y319018D01*
X955376D01*
X952329Y315971D01*
Y312924D01*
X955376Y309877D01*
X961470D01*
X964517Y306830D01*
Y303783D01*
X961470Y300736D01*
X955376D01*
X952329Y303783D01*
X970611Y300736D02*
X976705D01*
X973658D01*
Y312924D01*
X970611D01*
X985846D02*
X998034D01*
X985846Y300736D01*
X998034D01*
X1013270D02*
X1007176D01*
X1004128Y303783D01*
Y309877D01*
X1007176Y312924D01*
X1013270D01*
X1016317Y309877D01*
Y306830D01*
X1004128D01*
X1046796Y300736D02*
Y319018D01*
X1055938D01*
X1058985Y315971D01*
Y309877D01*
X1055938Y306830D01*
X1046796D01*
X1065079Y319018D02*
Y300736D01*
Y309877D01*
X1068126Y312924D01*
X1074220D01*
X1077267Y309877D01*
Y300736D01*
X1083361Y312924D02*
Y303783D01*
X1086408Y300736D01*
X1095549D01*
Y297689D01*
X1092502Y294642D01*
X1089455D01*
X1095549Y300736D02*
Y312924D01*
X1101643Y300736D02*
X1110784D01*
X1113831Y303783D01*
X1110784Y306830D01*
X1104690D01*
X1101643Y309877D01*
X1104690Y312924D01*
X1113831D01*
X1119925Y300736D02*
X1126019D01*
X1122972D01*
Y312924D01*
X1119925D01*
X1147348D02*
X1138207D01*
X1135160Y309877D01*
Y303783D01*
X1138207Y300736D01*
X1147348D01*
X1156489Y312924D02*
X1162583D01*
X1165630Y309877D01*
Y300736D01*
X1156489D01*
X1153442Y303783D01*
X1156489Y306830D01*
X1165630D01*
X1171724Y300736D02*
X1177818D01*
X1174771D01*
Y319018D01*
X1171724D01*
X1205241D02*
Y300736D01*
X1217429D01*
X1232664D02*
X1226570D01*
X1223523Y303783D01*
Y309877D01*
X1226570Y312924D01*
X1232664D01*
X1235711Y309877D01*
Y306830D01*
X1223523D01*
X1241805Y300736D02*
Y312924D01*
X1250946D01*
X1253994Y309877D01*
Y300736D01*
X1266181Y294642D02*
X1269229D01*
X1272275Y297689D01*
Y312924D01*
X1263135D01*
X1260088Y309877D01*
Y303783D01*
X1263135Y300736D01*
X1272275D01*
X1281417Y315971D02*
Y312924D01*
X1278370D01*
X1284464D01*
X1281417D01*
Y303783D01*
X1284464Y300736D01*
X1293605Y319018D02*
Y300736D01*
Y309877D01*
X1296652Y312924D01*
X1302746D01*
X1305793Y309877D01*
Y300736D01*
X1336273D02*
Y319018D01*
X1345414D01*
X1348461Y315971D01*
Y309877D01*
X1345414Y306830D01*
X1336273D01*
X1342367D02*
X1348461Y300736D01*
X1357602D02*
X1363696D01*
X1366743Y303783D01*
Y309877D01*
X1363696Y312924D01*
X1357602D01*
X1354555Y309877D01*
Y303783D01*
X1357602Y300736D01*
X1372837Y312924D02*
Y303783D01*
X1375884Y300736D01*
X1385025D01*
Y312924D01*
X1394166Y315971D02*
Y312924D01*
X1391119D01*
X1397213D01*
X1394166D01*
Y303783D01*
X1397213Y300736D01*
X1424636D02*
Y319018D01*
X1433777D01*
X1436824Y315971D01*
Y309877D01*
X1433777Y306830D01*
X1424636D01*
X1445965Y312924D02*
X1452059D01*
X1455106Y309877D01*
Y300736D01*
X1445965D01*
X1442918Y303783D01*
X1445965Y306830D01*
X1455106D01*
X1464247Y315971D02*
Y312924D01*
X1461200D01*
X1467294D01*
X1464247D01*
Y303783D01*
X1467294Y300736D01*
X1476435Y319018D02*
Y300736D01*
Y309877D01*
X1479482Y312924D01*
X1485576D01*
X1488623Y309877D01*
Y300736D01*
X1513000Y319018D02*
Y300736D01*
X1525188D01*
X1540423D02*
X1534329D01*
X1531282Y303783D01*
Y309877D01*
X1534329Y312924D01*
X1540423D01*
X1543470Y309877D01*
Y306830D01*
X1531282D01*
X1549564Y300736D02*
Y312924D01*
X1558705D01*
X1561752Y309877D01*
Y300736D01*
X1573940Y294642D02*
X1576987D01*
X1580034Y297689D01*
Y312924D01*
X1570893D01*
X1567846Y309877D01*
Y303783D01*
X1570893Y300736D01*
X1580034D01*
X1589175Y315971D02*
Y312924D01*
X1586128D01*
X1592222D01*
X1589175D01*
Y303783D01*
X1592222Y300736D01*
X1601363Y319018D02*
Y300736D01*
Y309877D01*
X1604410Y312924D01*
X1610504D01*
X1613551Y309877D01*
Y300736D01*
X1644031D02*
Y319018D01*
X1653172D01*
X1656219Y315971D01*
Y309877D01*
X1653172Y306830D01*
X1644031D01*
X1662313Y300736D02*
X1668407D01*
X1665360D01*
Y319018D01*
X1662313D01*
X1680595Y312924D02*
X1686689D01*
X1689736Y309877D01*
Y300736D01*
X1680595D01*
X1677548Y303783D01*
X1680595Y306830D01*
X1689736D01*
X1698877Y315971D02*
Y312924D01*
X1695830D01*
X1701924D01*
X1698877D01*
Y303783D01*
X1701924Y300736D01*
X1720206D02*
X1714112D01*
X1711065Y303783D01*
Y309877D01*
X1714112Y312924D01*
X1720206D01*
X1723253Y309877D01*
Y306830D01*
X1711065D01*
X1741535Y319018D02*
Y300736D01*
X1732394D01*
X1729347Y303783D01*
Y309877D01*
X1732394Y312924D01*
X1741535D01*
X1772015Y319018D02*
Y300736D01*
Y309877D01*
X1784203D01*
Y319018D01*
Y300736D01*
X1793345D02*
X1799438D01*
X1802486Y303783D01*
Y309877D01*
X1799438Y312924D01*
X1793345D01*
X1790298Y309877D01*
Y303783D01*
X1793345Y300736D01*
X1808580D02*
X1814674D01*
X1811627D01*
Y319018D01*
X1808580D01*
X1832956Y300736D02*
X1826862D01*
X1823815Y303783D01*
Y309877D01*
X1826862Y312924D01*
X1832956D01*
X1836003Y309877D01*
Y306830D01*
X1823815D01*
X1860379Y319018D02*
X1872567D01*
X1866473D01*
Y300736D01*
X1878661Y312924D02*
Y303783D01*
X1881708Y300736D01*
X1890849D01*
Y297689D01*
X1887802Y294642D01*
X1884755D01*
X1890849Y300736D02*
Y312924D01*
X1896943Y294642D02*
Y312924D01*
X1906084D01*
X1909131Y309877D01*
Y303783D01*
X1906084Y300736D01*
X1896943D01*
X1924366D02*
X1918272D01*
X1915225Y303783D01*
Y309877D01*
X1918272Y312924D01*
X1924366D01*
X1927413Y309877D01*
Y306830D01*
X1915225D01*
X378448Y328168D02*
X1957893D01*
X378448Y287020D02*
X1957893D01*
X378448Y328168D02*
Y104140D01*
X1957893Y328168D02*
Y104140D01*
X517608Y328168D02*
Y104140D01*
X694345Y328168D02*
Y104140D01*
X1035620Y328168D02*
Y104140D01*
X1325097Y328168D02*
Y104140D01*
X1632855Y328168D02*
Y104140D01*
X1760839Y328168D02*
Y104140D01*
X378448Y134620D02*
X1957893D01*
X378448Y104140D02*
X1957893D01*
D69*
X412992Y149860D02*
X412465Y152339D01*
X410975Y154390D01*
X408780Y155658D01*
X406259Y155923D01*
X403848Y155139D01*
X401964Y153443D01*
X400933Y151127D01*
Y148593D01*
X401964Y146277D01*
X403848Y144581D01*
X406259Y143797D01*
X408780Y144062D01*
X410975Y145330D01*
X412465Y147381D01*
X412992Y149860D01*
D70*
X410957Y93976D02*
X408418Y96515D01*
X403339D01*
X400800Y93976D01*
Y91437D01*
X403339Y88897D01*
X408418D01*
X410957Y86358D01*
Y83819D01*
X408418Y81280D01*
X403339D01*
X400800Y83819D01*
X416035Y81280D02*
X421113D01*
X418574D01*
Y96515D01*
X416035D01*
X431270Y81280D02*
X436348D01*
X438888Y83819D01*
Y88897D01*
X436348Y91437D01*
X431270D01*
X428731Y88897D01*
Y83819D01*
X431270Y81280D01*
X446505Y93976D02*
Y91437D01*
X443966D01*
X449044D01*
X446505D01*
Y83819D01*
X449044Y81280D01*
X482054Y96515D02*
Y81280D01*
X474436D01*
X471897Y83819D01*
Y88897D01*
X474436Y91437D01*
X482054D01*
X494750Y81280D02*
X489671D01*
X487132Y83819D01*
Y88897D01*
X489671Y91437D01*
X494750D01*
X497289Y88897D01*
Y86358D01*
X487132D01*
X504906Y81280D02*
Y93976D01*
Y88897D01*
X502367D01*
X507445D01*
X504906D01*
Y93976D01*
X507445Y96515D01*
X515063Y81280D02*
X520141D01*
X517602D01*
Y91437D01*
X515063D01*
X527759Y81280D02*
Y91437D01*
X535377D01*
X537916Y88897D01*
Y81280D01*
X542994D02*
X548072D01*
X545533D01*
Y91437D01*
X542994D01*
X558229Y93976D02*
Y91437D01*
X555690D01*
X560768D01*
X558229D01*
Y83819D01*
X560768Y81280D01*
X568386D02*
X573464D01*
X570925D01*
Y91437D01*
X568386D01*
X583621Y81280D02*
X588699D01*
X591238Y83819D01*
Y88897D01*
X588699Y91437D01*
X583621D01*
X581082Y88897D01*
Y83819D01*
X583621Y81280D01*
X596317D02*
Y91437D01*
X603934D01*
X606473Y88897D01*
Y81280D01*
X611552D02*
X619169D01*
X621708Y83819D01*
X619169Y86358D01*
X614091D01*
X611552Y88897D01*
X614091Y91437D01*
X621708D01*
X642022D02*
X644561D01*
Y88897D01*
X642022D01*
Y91437D01*
Y83819D02*
X644561D01*
Y81280D01*
X642022D01*
Y83819D01*
X674025Y81280D02*
Y96515D01*
X681643D01*
X684182Y93976D01*
Y88897D01*
X681643Y86358D01*
X674025D01*
X679103D02*
X684182Y81280D01*
X691799D02*
X696878D01*
X699417Y83819D01*
Y88897D01*
X696878Y91437D01*
X691799D01*
X689260Y88897D01*
Y83819D01*
X691799Y81280D01*
X704495Y91437D02*
Y83819D01*
X707035Y81280D01*
X714652D01*
Y91437D01*
X722270Y93976D02*
Y91437D01*
X719730D01*
X724809D01*
X722270D01*
Y83819D01*
X724809Y81280D01*
X747661D02*
Y96515D01*
X755279D01*
X757818Y93976D01*
Y88897D01*
X755279Y86358D01*
X747661D01*
X765436Y91437D02*
X770514D01*
X773053Y88897D01*
Y81280D01*
X765436D01*
X762896Y83819D01*
X765436Y86358D01*
X773053D01*
X780671Y93976D02*
Y91437D01*
X778131D01*
X783210D01*
X780671D01*
Y83819D01*
X783210Y81280D01*
X790827Y96515D02*
Y81280D01*
Y88897D01*
X793366Y91437D01*
X798445D01*
X800984Y88897D01*
Y81280D01*
X821298Y96515D02*
Y81280D01*
X831454D01*
X844150D02*
X839072D01*
X836533Y83819D01*
Y88897D01*
X839072Y91437D01*
X844150D01*
X846689Y88897D01*
Y86358D01*
X836533D01*
X851768Y81280D02*
Y91437D01*
X859385D01*
X861924Y88897D01*
Y81280D01*
X872081Y76202D02*
X874620D01*
X877159Y78741D01*
Y91437D01*
X869542D01*
X867003Y88897D01*
Y83819D01*
X869542Y81280D01*
X877159D01*
X884777Y93976D02*
Y91437D01*
X882238D01*
X887316D01*
X884777D01*
Y83819D01*
X887316Y81280D01*
X894934Y96515D02*
Y81280D01*
Y88897D01*
X897473Y91437D01*
X902551D01*
X905090Y88897D01*
Y81280D01*
X674025Y50800D02*
Y66035D01*
X681643D01*
X684182Y63496D01*
Y58418D01*
X681643Y55878D01*
X674025D01*
X689260Y66035D02*
Y50800D01*
Y58418D01*
X691799Y60957D01*
X696878D01*
X699417Y58418D01*
Y50800D01*
X704495Y60957D02*
Y53339D01*
X707035Y50800D01*
X714652D01*
Y48261D01*
X712113Y45722D01*
X709574D01*
X714652Y50800D02*
Y60957D01*
X719730Y50800D02*
X727348D01*
X729887Y53339D01*
X727348Y55878D01*
X722270D01*
X719730Y58418D01*
X722270Y60957D01*
X729887D01*
X734965Y50800D02*
X740044D01*
X737505D01*
Y60957D01*
X734965D01*
X757818D02*
X750201D01*
X747661Y58418D01*
Y53339D01*
X750201Y50800D01*
X757818D01*
X765436Y60957D02*
X770514D01*
X773053Y58418D01*
Y50800D01*
X765436D01*
X762896Y53339D01*
X765436Y55878D01*
X773053D01*
X778131Y50800D02*
X783210D01*
X780671D01*
Y66035D01*
X778131D01*
X806062D02*
Y50800D01*
X816219D01*
X828915D02*
X823837D01*
X821298Y53339D01*
Y58418D01*
X823837Y60957D01*
X828915D01*
X831454Y58418D01*
Y55878D01*
X821298D01*
X836533Y50800D02*
Y60957D01*
X844150D01*
X846689Y58418D01*
Y50800D01*
X856846Y45722D02*
X859385D01*
X861924Y48261D01*
Y60957D01*
X854307D01*
X851768Y58418D01*
Y53339D01*
X854307Y50800D01*
X861924D01*
X869542Y63496D02*
Y60957D01*
X867003D01*
X872081D01*
X869542D01*
Y53339D01*
X872081Y50800D01*
X879699Y66035D02*
Y50800D01*
Y58418D01*
X882238Y60957D01*
X887316D01*
X889855Y58418D01*
Y50800D01*
M02*
