G04 Layer_Physical_Order=1*
G04 Layer_Color=255*
%FSLAX44Y44*%
%MOMM*%
G71*
G01*
G75*
%ADD10R,1.5500X1.3500*%
%ADD11R,0.9140X1.2190*%
%ADD12R,0.9000X0.8000*%
%ADD13R,0.8000X0.9000*%
%ADD14R,1.0000X2.0000*%
%ADD15R,0.9000X0.7000*%
%ADD16R,1.5000X1.5000*%
%ADD17R,1.3500X0.4000*%
%ADD18O,0.8500X0.2000*%
%ADD19O,0.2000X0.8500*%
%ADD20R,0.7500X0.6000*%
%ADD21O,0.7000X0.2500*%
%ADD22O,0.2500X0.7000*%
%ADD23C,0.2000*%
%ADD24C,0.5000*%
%ADD25C,0.4000*%
%ADD26R,1.5000X1.5000*%
%ADD27C,1.5000*%
%ADD28O,2.0000X1.3500*%
%ADD29O,1.2500X1.0500*%
%ADD30C,0.5000*%
%ADD31C,1.0000*%
G36*
X153846Y95426D02*
X155513Y94312D01*
X157480Y93921D01*
X157509Y93927D01*
X159471Y91965D01*
Y82100D01*
X156040D01*
Y72674D01*
X154940Y72189D01*
X153559Y71915D01*
X152388Y71132D01*
X152003Y70748D01*
X150830Y71234D01*
Y75290D01*
X139080D01*
Y76560D01*
X137810D01*
Y87310D01*
X134594D01*
X134108Y88483D01*
X141075Y95451D01*
X153830D01*
X153846Y95426D01*
D02*
G37*
G36*
X90134Y275791D02*
X89572Y275058D01*
X88917Y273477D01*
X88861Y273050D01*
X95250D01*
Y270510D01*
X88861D01*
X88917Y270083D01*
X89572Y268502D01*
X90134Y267770D01*
X89508Y266500D01*
X83770D01*
Y256270D01*
X94000D01*
Y263452D01*
X94515Y263872D01*
X94540Y263882D01*
X95451Y263249D01*
Y231365D01*
X93810Y229724D01*
X92540Y230250D01*
Y235040D01*
X72460D01*
Y214960D01*
X92540D01*
Y221391D01*
X94190D01*
X95571Y221665D01*
X96742Y222448D01*
X101612Y227318D01*
X102395Y228489D01*
X102669Y229870D01*
Y262665D01*
X108175Y268171D01*
X135460D01*
Y256460D01*
X149540D01*
Y257361D01*
X155207D01*
X155390Y257122D01*
X155629Y256939D01*
Y242896D01*
X150810Y238077D01*
X149540Y238540D01*
Y238540D01*
X135460D01*
Y226460D01*
X148891D01*
Y223540D01*
X135460D01*
Y221109D01*
X127540D01*
Y235040D01*
X107460D01*
Y214960D01*
X122436D01*
X122448Y214948D01*
X123619Y214165D01*
X125000Y213891D01*
X135460D01*
Y211460D01*
X148891D01*
Y191339D01*
X148103Y190692D01*
X146758Y190869D01*
X146134Y191686D01*
X147247Y193354D01*
X147639Y195320D01*
X147247Y197286D01*
X146134Y198954D01*
X144466Y200068D01*
X142500Y200459D01*
X140534Y200068D01*
X138866Y198954D01*
X137752Y197286D01*
X137361Y195320D01*
X137752Y193354D01*
X137833Y193233D01*
X137112Y192026D01*
X135452Y191695D01*
X133715Y190535D01*
X133619Y190392D01*
X132500Y190614D01*
X131045Y190325D01*
X130835Y191381D01*
X130052Y192552D01*
X127012Y195592D01*
X125841Y196375D01*
X124460Y196649D01*
X106680D01*
X105299Y196375D01*
X104128Y195592D01*
X103843Y195307D01*
X102669Y195793D01*
Y204630D01*
X102694Y204646D01*
X103808Y206313D01*
X104199Y208280D01*
X103808Y210247D01*
X102694Y211914D01*
X101026Y213028D01*
X99060Y213419D01*
X97093Y213028D01*
X95426Y211914D01*
X94312Y210247D01*
X93921Y208280D01*
X94050Y207634D01*
X92970Y206554D01*
X92140Y206719D01*
X90174Y206328D01*
X88506Y205214D01*
X88490Y205189D01*
X51869D01*
Y213867D01*
X51595Y215248D01*
X50812Y216419D01*
X40879Y226352D01*
X39708Y227135D01*
X38327Y227409D01*
X29372D01*
X28770Y228863D01*
X27161Y230961D01*
X25063Y232570D01*
X22621Y233582D01*
X20000Y233927D01*
X17379Y233582D01*
X14937Y232570D01*
X12839Y230961D01*
X12499Y230517D01*
X11229Y230949D01*
Y242052D01*
X12499Y242483D01*
X12839Y242039D01*
X14937Y240430D01*
X17379Y239419D01*
X20000Y239073D01*
X22621Y239419D01*
X25063Y240430D01*
X27161Y242039D01*
X28770Y244137D01*
X29782Y246579D01*
X30127Y249200D01*
X29782Y251821D01*
X28770Y254263D01*
X27161Y256361D01*
X26665Y256741D01*
X27097Y258011D01*
X27940D01*
X29321Y258285D01*
X30492Y259068D01*
X48485Y277061D01*
X89508D01*
X90134Y275791D01*
D02*
G37*
G36*
X345000Y205346D02*
X343730Y204698D01*
X341556Y205598D01*
X338750Y205968D01*
X336770D01*
Y195125D01*
X334230D01*
Y205968D01*
X332250D01*
X330980Y205801D01*
X330000Y206952D01*
Y213730D01*
X322000D01*
Y215000D01*
X320730D01*
Y223500D01*
X314000D01*
Y222040D01*
X301460D01*
Y207960D01*
X304391D01*
Y202815D01*
X275185Y173609D01*
X272128D01*
X271085Y174879D01*
X271109Y175000D01*
X270835Y176381D01*
X270052Y177552D01*
X268881Y178335D01*
X267769Y178556D01*
Y180600D01*
X267794Y180616D01*
X268908Y182283D01*
X269299Y184250D01*
X268908Y186217D01*
X267794Y187884D01*
X266126Y188998D01*
X264160Y189389D01*
X262194Y188998D01*
X260526Y187884D01*
X260510Y187859D01*
X258538D01*
X258335Y188881D01*
X257552Y190052D01*
X256381Y190835D01*
X255000Y191109D01*
X253619Y190835D01*
X252500Y190087D01*
X251381Y190835D01*
X250000Y191109D01*
X248619Y190835D01*
X247500Y190087D01*
X246381Y190835D01*
X245000Y191109D01*
X243619Y190835D01*
X242500Y190087D01*
X241381Y190835D01*
X240000Y191109D01*
X238619Y190835D01*
X237500Y190087D01*
X236381Y190835D01*
X235000Y191109D01*
X233619Y190835D01*
X232500Y190087D01*
X231381Y190835D01*
X230000Y191109D01*
X228619Y190835D01*
X228348Y190653D01*
X227871Y190907D01*
X227761Y191066D01*
X227502Y192468D01*
X228268Y193613D01*
X228659Y195580D01*
X228653Y195609D01*
X237552Y204508D01*
X238335Y205679D01*
X238609Y207060D01*
Y217451D01*
X239879Y217836D01*
X240206Y217346D01*
X241873Y216232D01*
X243840Y215841D01*
X244072Y215888D01*
X244971Y214989D01*
X244861Y214440D01*
X245252Y212474D01*
X246366Y210806D01*
X248034Y209692D01*
X250000Y209301D01*
X251966Y209692D01*
X253634Y210806D01*
X254748Y212474D01*
X255139Y214440D01*
X254748Y216406D01*
X253634Y218074D01*
X253609Y218090D01*
Y290628D01*
X255063Y291230D01*
X257161Y292839D01*
X258770Y294937D01*
X259782Y297379D01*
X260127Y300000D01*
X259782Y302621D01*
X258770Y305063D01*
X257161Y307161D01*
X255063Y308770D01*
X252621Y309782D01*
X250000Y310127D01*
X247379Y309782D01*
X244937Y308770D01*
X242839Y307161D01*
X241230Y305063D01*
X240218Y302621D01*
X239873Y300000D01*
X240218Y297379D01*
X241230Y294937D01*
X242839Y292839D01*
X244937Y291230D01*
X246391Y290628D01*
Y284973D01*
X245217Y284487D01*
X233779Y295925D01*
X234382Y297379D01*
X234727Y300000D01*
X234382Y302621D01*
X233370Y305063D01*
X231761Y307161D01*
X229663Y308770D01*
X227221Y309782D01*
X224600Y310127D01*
X221979Y309782D01*
X219537Y308770D01*
X217439Y307161D01*
X215830Y305063D01*
X214818Y302621D01*
X214473Y300000D01*
X214818Y297379D01*
X215830Y294937D01*
X217439Y292839D01*
X219537Y291230D01*
X221979Y290219D01*
X224600Y289873D01*
X227221Y290219D01*
X228675Y290821D01*
X240231Y279265D01*
Y260000D01*
X236270D01*
Y252000D01*
X233730D01*
Y260000D01*
X228399D01*
Y277020D01*
X228424Y277036D01*
X229538Y278703D01*
X229929Y280670D01*
X229538Y282637D01*
X228424Y284304D01*
X226756Y285418D01*
X224790Y285809D01*
X222824Y285418D01*
X221156Y284304D01*
X220042Y282637D01*
X219651Y280670D01*
X220042Y278703D01*
X221156Y277036D01*
X221181Y277020D01*
Y260000D01*
X216270D01*
Y252000D01*
X215000D01*
Y250730D01*
X206500D01*
Y244884D01*
X205230Y244358D01*
X202290Y247298D01*
Y250540D01*
X199048D01*
X183455Y266134D01*
X181787Y267248D01*
X179821Y267639D01*
X166329D01*
X166145Y267878D01*
X165907Y268061D01*
Y288500D01*
X172530D01*
Y300000D01*
X173800D01*
Y301270D01*
X185300D01*
Y304973D01*
X186473Y305459D01*
X189406Y302527D01*
X189073Y300000D01*
X189418Y297379D01*
X190430Y294937D01*
X192039Y292839D01*
X194137Y291230D01*
X196579Y290218D01*
X199200Y289873D01*
X201821Y290218D01*
X204263Y291230D01*
X206361Y292839D01*
X207970Y294937D01*
X208981Y297379D01*
X209327Y300000D01*
X208981Y302621D01*
X207970Y305063D01*
X206361Y307161D01*
X204263Y308770D01*
X201821Y309782D01*
X199200Y310127D01*
X196673Y309794D01*
X192640Y313827D01*
X193127Y315000D01*
X345000D01*
Y205346D01*
D02*
G37*
G36*
X231391Y208555D02*
X223549Y200713D01*
X223520Y200719D01*
X221553Y200328D01*
X219886Y199214D01*
X218772Y197547D01*
X218381Y195580D01*
X218772Y193613D01*
X219886Y191946D01*
X221553Y190832D01*
X222039Y189441D01*
X221665Y188881D01*
X221391Y187500D01*
Y181000D01*
X221665Y179619D01*
X222448Y178448D01*
X223619Y177665D01*
X225000Y177391D01*
X226381Y177665D01*
X227500Y178413D01*
X228619Y177665D01*
X230000Y177391D01*
X231381Y177665D01*
X232500Y178413D01*
X233619Y177666D01*
X235000Y177391D01*
X236381Y177666D01*
X237500Y178413D01*
X238619Y177665D01*
X240000Y177391D01*
X241381Y177665D01*
X242500Y178413D01*
X243619Y177665D01*
X245000Y177391D01*
X246381Y177665D01*
X247500Y178413D01*
X248619Y177665D01*
X250000Y177391D01*
X251381Y177665D01*
X252500Y178413D01*
X253619Y177665D01*
X255000Y177391D01*
X256381Y177665D01*
X257552Y178448D01*
X258335Y179619D01*
X258538Y180641D01*
X260510D01*
X260526Y180616D01*
X260551Y180600D01*
Y178520D01*
X259619Y178335D01*
X258448Y177552D01*
X257665Y176381D01*
X257391Y175000D01*
X257665Y173619D01*
X258413Y172500D01*
X257665Y171381D01*
X257391Y170000D01*
X257665Y168619D01*
X258413Y167500D01*
X257665Y166381D01*
X257391Y165000D01*
X257665Y163619D01*
X258413Y162500D01*
X257665Y161381D01*
X257391Y160000D01*
X257636Y158766D01*
X257395Y158605D01*
X256290Y156951D01*
X256155Y156270D01*
X264250D01*
X273223D01*
X273322Y156391D01*
X287715D01*
X288520Y155121D01*
X288231Y153670D01*
X288622Y151704D01*
X289736Y150036D01*
X291404Y148922D01*
X293370Y148531D01*
X293731Y148603D01*
X294356Y147432D01*
X290977Y144053D01*
X289973Y142552D01*
X289621Y140780D01*
X289621Y140780D01*
Y111290D01*
X289621Y111290D01*
X289973Y109519D01*
X290977Y108017D01*
X297267Y101727D01*
X298769Y100723D01*
X300540Y100371D01*
X301460Y99574D01*
Y97960D01*
X303371D01*
Y96124D01*
X303253Y95947D01*
X302861Y93980D01*
X303253Y92014D01*
X303371Y91836D01*
Y62400D01*
X303371Y62400D01*
X303723Y60629D01*
X304727Y59127D01*
X314960Y48894D01*
Y35360D01*
X335040D01*
Y55440D01*
X321506D01*
X312629Y64317D01*
Y91836D01*
X312748Y92014D01*
X313139Y93980D01*
X312748Y95947D01*
X312629Y96124D01*
Y97960D01*
X314000D01*
Y96500D01*
X320730D01*
Y105000D01*
Y113500D01*
X314000D01*
Y112040D01*
X301460D01*
Y112040D01*
X300460Y111626D01*
X298879Y113207D01*
Y126967D01*
X300149Y127540D01*
X302085Y126738D01*
X304230Y126456D01*
Y135750D01*
X306770D01*
Y126456D01*
X308915Y126738D01*
X311165Y127670D01*
X312690Y128841D01*
X313960Y128301D01*
Y122500D01*
X314157Y121509D01*
X314719Y120669D01*
X315559Y120107D01*
X316550Y119910D01*
X322671D01*
X322860Y119454D01*
X324583Y117208D01*
X326829Y115485D01*
X328555Y114770D01*
X328302Y113500D01*
X323270D01*
Y106270D01*
X330000D01*
Y113048D01*
X330980Y114199D01*
X332250Y114032D01*
X334230D01*
Y124875D01*
X336770D01*
Y114032D01*
X338750D01*
X341556Y114402D01*
X343730Y115302D01*
X345000Y114654D01*
Y5000D01*
X278927D01*
X278440Y6173D01*
X282473Y10206D01*
X285000Y9873D01*
X287621Y10218D01*
X290063Y11230D01*
X292161Y12839D01*
X293770Y14937D01*
X294782Y17379D01*
X295127Y20000D01*
X294782Y22621D01*
X293770Y25063D01*
X292161Y27161D01*
X290063Y28770D01*
X287621Y29782D01*
X285000Y30127D01*
X282379Y29782D01*
X279937Y28770D01*
X277839Y27161D01*
X276230Y25063D01*
X275218Y22621D01*
X274873Y20000D01*
X275206Y17473D01*
X269411Y11679D01*
X247955D01*
X247815Y12089D01*
X247645Y12949D01*
X249170Y14937D01*
X250182Y17379D01*
X250527Y20000D01*
X250182Y22621D01*
X249170Y25063D01*
X247561Y27161D01*
X245463Y28770D01*
X243021Y29782D01*
X240400Y30127D01*
X237779Y29782D01*
X235337Y28770D01*
X233239Y27161D01*
X231630Y25063D01*
X230618Y22621D01*
X230273Y20000D01*
X230618Y17379D01*
X231630Y14937D01*
X233155Y12949D01*
X232985Y12089D01*
X232845Y11679D01*
X225040D01*
Y24936D01*
X241435Y41331D01*
X242218Y42502D01*
X242492Y43883D01*
Y53865D01*
X245993D01*
Y70051D01*
X249510D01*
X249526Y70026D01*
X251194Y68912D01*
X253160Y68521D01*
X255126Y68912D01*
X256794Y70026D01*
X256810Y70051D01*
X264160D01*
X265541Y70325D01*
X266712Y71108D01*
X272552Y76948D01*
X273335Y78119D01*
X273609Y79500D01*
Y83960D01*
X277040D01*
Y96690D01*
X277040Y97040D01*
Y97960D01*
X277040Y98310D01*
Y111040D01*
X268564D01*
X258609Y120995D01*
Y135750D01*
Y139000D01*
X258335Y140381D01*
X257552Y141552D01*
X256381Y142335D01*
X255000Y142609D01*
X253619Y142335D01*
X252500Y141587D01*
X251381Y142335D01*
X250000Y142609D01*
X248619Y142335D01*
X247500Y141587D01*
X246381Y142335D01*
X245000Y142609D01*
X243619Y142335D01*
X242500Y141587D01*
X241381Y142335D01*
X240000Y142609D01*
X238619Y142335D01*
X237500Y141587D01*
X236381Y142335D01*
X235000Y142609D01*
X233619Y142335D01*
X232500Y141587D01*
X231381Y142335D01*
X230000Y142609D01*
X228619Y142335D01*
X227500Y141587D01*
X226381Y142335D01*
X225000Y142609D01*
X223619Y142335D01*
X222448Y141552D01*
X221665Y140381D01*
X221391Y139000D01*
Y132500D01*
X221665Y131119D01*
X222448Y129948D01*
X223619Y129165D01*
X225000Y128891D01*
X226381Y129165D01*
X227500Y129913D01*
X228619Y129165D01*
X230000Y128891D01*
X231381Y129165D01*
X232500Y129913D01*
X233619Y129165D01*
X235000Y128891D01*
X235121Y128915D01*
X236391Y127872D01*
Y119250D01*
X236366Y119234D01*
X235252Y117566D01*
X234861Y115600D01*
X235252Y113633D01*
X236366Y111966D01*
X238034Y110852D01*
X240000Y110461D01*
X240018Y110465D01*
X241000Y109659D01*
Y98770D01*
X259000D01*
Y108736D01*
X260173Y109222D01*
X262960Y106436D01*
Y98310D01*
X262960Y97960D01*
Y97040D01*
X262960Y96690D01*
Y83960D01*
X266391D01*
Y80995D01*
X262665Y77269D01*
X256810D01*
X256794Y77294D01*
X255126Y78408D01*
X253160Y78799D01*
X251194Y78408D01*
X249526Y77294D01*
X249510Y77269D01*
X213609D01*
Y84960D01*
X217540D01*
Y110040D01*
X202460D01*
Y84960D01*
X206391D01*
Y77269D01*
X197075D01*
X193609Y80735D01*
Y83960D01*
X197040D01*
Y96040D01*
X185479D01*
Y98960D01*
X197040D01*
Y111040D01*
X193244D01*
X193207Y111229D01*
X192425Y112400D01*
X189884Y114940D01*
X188714Y115722D01*
X187332Y115997D01*
X173688D01*
X173089Y117117D01*
X173288Y117414D01*
X173679Y119380D01*
X173288Y121347D01*
X172174Y123014D01*
X170506Y124128D01*
X168540Y124519D01*
X168511Y124513D01*
X161109Y131915D01*
Y131969D01*
X161364Y133250D01*
Y137517D01*
X161859Y138141D01*
X162483Y138636D01*
X166750D01*
X168031Y138891D01*
X168425D01*
X182868Y124448D01*
X184039Y123665D01*
X185420Y123391D01*
X197010D01*
X197026Y123366D01*
X198694Y122252D01*
X200660Y121861D01*
X202626Y122252D01*
X204294Y123366D01*
X205408Y125034D01*
X205799Y127000D01*
X205408Y128967D01*
X204294Y130634D01*
X202626Y131748D01*
X200660Y132139D01*
X198694Y131748D01*
X197026Y130634D01*
X197010Y130609D01*
X186915D01*
X180067Y137457D01*
X180553Y138631D01*
X189390D01*
X189406Y138606D01*
X191073Y137492D01*
X193040Y137101D01*
X195007Y137492D01*
X196674Y138606D01*
X197788Y140274D01*
X198179Y142240D01*
X197788Y144206D01*
X196674Y145874D01*
X195007Y146988D01*
X193040Y147379D01*
X191073Y146988D01*
X189406Y145874D01*
X189390Y145849D01*
X187722D01*
X187043Y147119D01*
X187628Y147993D01*
X188019Y149960D01*
X187628Y151926D01*
X186514Y153594D01*
X185880Y154017D01*
X185747Y155633D01*
X206832Y176719D01*
X207615Y177890D01*
X207889Y179271D01*
Y210790D01*
X207914Y210806D01*
X209028Y212474D01*
X209419Y214440D01*
X209028Y216406D01*
X207914Y218074D01*
X206246Y219188D01*
X204280Y219579D01*
X204048Y219533D01*
X203149Y220431D01*
X203259Y220980D01*
X203162Y221469D01*
X203967Y222451D01*
X219710D01*
X221091Y222725D01*
X222262Y223508D01*
X227342Y228588D01*
X228125Y229759D01*
X228399Y231140D01*
Y231460D01*
X231391D01*
Y208555D01*
D02*
G37*
G36*
X196465Y226931D02*
X195985Y225615D01*
X194486Y224614D01*
X193372Y222946D01*
X192981Y220980D01*
X193372Y219014D01*
X194486Y217346D01*
X194511Y217330D01*
Y185249D01*
X193241Y184570D01*
X192467Y185088D01*
X190500Y185479D01*
X188552Y185091D01*
X188480Y185141D01*
X187681Y185940D01*
X187631Y186012D01*
X188019Y187960D01*
X187628Y189926D01*
X186514Y191594D01*
X184846Y192708D01*
X182880Y193099D01*
X180914Y192708D01*
X179246Y191594D01*
X178542Y190539D01*
X177058D01*
X176354Y191594D01*
X174687Y192708D01*
X172720Y193099D01*
X170753Y192708D01*
X169086Y191594D01*
X167972Y189926D01*
X167581Y187960D01*
X167972Y185993D01*
X169086Y184326D01*
X169111Y184310D01*
Y181835D01*
X168385Y181109D01*
X168031D01*
X166750Y181364D01*
X162483D01*
X161859Y181859D01*
X161364Y182483D01*
Y186750D01*
X161070Y188229D01*
X160232Y189482D01*
X158979Y190320D01*
X157500Y190614D01*
X157091Y190533D01*
X156109Y191339D01*
Y228850D01*
X156134Y228866D01*
X164402Y237134D01*
X164980Y238000D01*
X166250Y237615D01*
Y236770D01*
X174000D01*
X181750D01*
Y239986D01*
X182923Y240472D01*
X196465Y226931D01*
D02*
G37*
G36*
X155629Y285921D02*
X154509Y285322D01*
X154367Y285418D01*
X152400Y285809D01*
X150434Y285418D01*
X148766Y284304D01*
X148750Y284279D01*
X46990D01*
X45609Y284005D01*
X44438Y283222D01*
X29112Y267897D01*
X28155Y268736D01*
X28770Y269537D01*
X29782Y271979D01*
X30127Y274600D01*
X29782Y277221D01*
X28770Y279663D01*
X27161Y281761D01*
X25063Y283370D01*
X22621Y284382D01*
X20000Y284727D01*
X17473Y284394D01*
X13361Y288506D01*
X13427Y288948D01*
X13544Y289101D01*
X14823Y289697D01*
X16998Y288796D01*
X18730Y288568D01*
Y300000D01*
X20000D01*
Y301270D01*
X31432D01*
X31204Y303002D01*
X30045Y305800D01*
X29567Y306422D01*
X30129Y307561D01*
X50346D01*
X50972Y306291D01*
X50030Y305063D01*
X49018Y302621D01*
X48673Y300000D01*
X49018Y297379D01*
X50030Y294937D01*
X51639Y292839D01*
X53737Y291230D01*
X56179Y290218D01*
X58800Y289873D01*
X61421Y290218D01*
X63863Y291230D01*
X65961Y292839D01*
X67570Y294937D01*
X68582Y297379D01*
X68927Y300000D01*
X68582Y302621D01*
X67570Y305063D01*
X66628Y306291D01*
X67254Y307561D01*
X75746D01*
X76372Y306291D01*
X75430Y305063D01*
X74418Y302621D01*
X74073Y300000D01*
X74418Y297379D01*
X75430Y294937D01*
X77039Y292839D01*
X79137Y291230D01*
X81579Y290218D01*
X84200Y289873D01*
X86821Y290218D01*
X89263Y291230D01*
X91361Y292839D01*
X92970Y294937D01*
X93982Y297379D01*
X94327Y300000D01*
X93982Y302621D01*
X92970Y305063D01*
X92028Y306291D01*
X92654Y307561D01*
X101146D01*
X101772Y306291D01*
X100830Y305063D01*
X99818Y302621D01*
X99473Y300000D01*
X99818Y297379D01*
X100830Y294937D01*
X102439Y292839D01*
X104537Y291230D01*
X106979Y290218D01*
X109600Y289873D01*
X112221Y290218D01*
X114663Y291230D01*
X116761Y292839D01*
X118370Y294937D01*
X119382Y297379D01*
X119727Y300000D01*
X119382Y302621D01*
X118370Y305063D01*
X117428Y306291D01*
X118054Y307561D01*
X123500D01*
Y301270D01*
X135000D01*
X146500D01*
Y307561D01*
X155629D01*
Y285921D01*
D02*
G37*
G36*
X44651Y212372D02*
Y170180D01*
X44925Y168799D01*
X45708Y167628D01*
X68388Y144948D01*
X69559Y144165D01*
X70940Y143891D01*
X83407D01*
X83893Y142717D01*
X67448Y126272D01*
X66665Y125101D01*
X66391Y123720D01*
Y55440D01*
X59960D01*
Y35360D01*
X80040D01*
Y49731D01*
X87768D01*
X87960Y48540D01*
X87960D01*
Y36460D01*
X102040D01*
Y48540D01*
X98609D01*
Y49780D01*
X98335Y51161D01*
X97580Y52290D01*
X97688Y52847D01*
X97984Y53560D01*
X101580D01*
Y60290D01*
X93080D01*
X84580D01*
Y56949D01*
X73609D01*
Y122225D01*
X90275Y138891D01*
X111968D01*
X113250Y138636D01*
X115214D01*
X115240Y138631D01*
X115266Y138636D01*
X117517D01*
X118141Y138141D01*
X118636Y137517D01*
Y133250D01*
X118891Y131968D01*
Y126535D01*
X115345Y122989D01*
X95090D01*
X95074Y123014D01*
X93406Y124128D01*
X91440Y124519D01*
X89473Y124128D01*
X87806Y123014D01*
X86692Y121347D01*
X86301Y119380D01*
X86692Y117414D01*
X87806Y115746D01*
X89473Y114632D01*
X91440Y114241D01*
X93406Y114632D01*
X95074Y115746D01*
X95090Y115771D01*
X116840D01*
X118221Y116045D01*
X119392Y116828D01*
X121212Y118648D01*
X122590Y118230D01*
X122752Y117414D01*
X123866Y115746D01*
X125534Y114632D01*
X127500Y114241D01*
X129466Y114632D01*
X131134Y115746D01*
X132248Y117414D01*
X132639Y119380D01*
X132248Y121347D01*
X131134Y123014D01*
X131109Y123030D01*
Y127173D01*
X131230Y127272D01*
Y132572D01*
X131365Y133250D01*
Y135500D01*
Y137750D01*
X131230Y138428D01*
Y142850D01*
X130451Y142695D01*
X128715Y141535D01*
X128619Y141392D01*
X127500Y141614D01*
X126021Y141320D01*
X125000Y140638D01*
X123979Y141320D01*
X122724Y141570D01*
X122140Y141974D01*
X121614Y142500D01*
X121320Y143979D01*
X120638Y145000D01*
X121320Y146021D01*
X121614Y147500D01*
X121320Y148979D01*
X120638Y150000D01*
X121320Y151021D01*
X121614Y152500D01*
X121320Y153979D01*
X120638Y155000D01*
X121320Y156021D01*
X121614Y157500D01*
X121320Y158979D01*
X120638Y160000D01*
X121320Y161021D01*
X121614Y162500D01*
X121320Y163979D01*
X120638Y165000D01*
X121320Y166021D01*
X121614Y167500D01*
X121320Y168979D01*
X120638Y170000D01*
X121320Y171021D01*
X121614Y172500D01*
X121320Y173979D01*
X120638Y175000D01*
X121320Y176021D01*
X121570Y177276D01*
X121975Y177860D01*
X122500Y178386D01*
X123979Y178680D01*
X125000Y179362D01*
X126021Y178680D01*
X127500Y178386D01*
X128979Y178680D01*
X130000Y179362D01*
X131021Y178680D01*
X132500Y178386D01*
X133619Y178608D01*
X133715Y178465D01*
X135452Y177305D01*
X136230Y177150D01*
Y181573D01*
X136365Y182250D01*
Y184500D01*
X138635D01*
Y182250D01*
X138770Y181572D01*
Y177150D01*
X139548Y177305D01*
X141285Y178465D01*
X141381Y178608D01*
X142500Y178386D01*
X143979Y178680D01*
X145000Y179362D01*
X146021Y178680D01*
X147500Y178386D01*
X147909Y178467D01*
X148891Y177661D01*
Y161655D01*
X147621Y161224D01*
X147136Y161856D01*
X145778Y162898D01*
X144197Y163553D01*
X143770Y163609D01*
Y157220D01*
Y149707D01*
X143891Y149566D01*
Y143827D01*
X143770Y143728D01*
Y138427D01*
X143635Y137750D01*
Y135500D01*
X141365D01*
Y137750D01*
X141230Y138428D01*
Y142850D01*
X140451Y142695D01*
X138715Y141535D01*
X138619Y141392D01*
X137500Y141614D01*
X136381Y141392D01*
X136285Y141535D01*
X134548Y142695D01*
X133770Y142850D01*
Y138427D01*
X133635Y137750D01*
Y135500D01*
Y133250D01*
X133770Y132573D01*
Y127272D01*
X133891Y127173D01*
Y116500D01*
X134165Y115119D01*
X134948Y113948D01*
X138976Y109919D01*
X138943Y109564D01*
X138549Y108649D01*
X105040D01*
X103659Y108375D01*
X102488Y107592D01*
X90528Y95632D01*
X89745Y94461D01*
X89471Y93080D01*
Y82100D01*
X86040D01*
Y69560D01*
X84580D01*
Y62830D01*
X93080D01*
X101580D01*
Y69560D01*
X100120D01*
Y82100D01*
X96689D01*
Y91585D01*
X106535Y101431D01*
X135187D01*
X135673Y100257D01*
X121266Y85850D01*
X106790D01*
Y71310D01*
X105330D01*
Y61830D01*
X117080D01*
Y60560D01*
X118350D01*
Y49810D01*
X128830D01*
Y51270D01*
X149370D01*
Y57940D01*
X149472Y58008D01*
X153407Y61942D01*
X154580Y61456D01*
Y53560D01*
X161810D01*
Y61560D01*
X163080D01*
Y62830D01*
X171580D01*
Y65258D01*
X172732Y66028D01*
X174028Y67324D01*
X175201Y66838D01*
Y62500D01*
Y30040D01*
X165760D01*
Y11679D01*
X157955D01*
X157816Y12089D01*
X157645Y12949D01*
X159170Y14937D01*
X160182Y17379D01*
X160527Y20000D01*
X160182Y22621D01*
X159170Y25063D01*
X157561Y27161D01*
X155463Y28770D01*
X153021Y29782D01*
X150400Y30127D01*
X147779Y29782D01*
X145337Y28770D01*
X143239Y27161D01*
X141630Y25063D01*
X140618Y22621D01*
X140273Y20000D01*
X140618Y17379D01*
X141630Y14937D01*
X143155Y12949D01*
X142985Y12089D01*
X142845Y11679D01*
X134711D01*
X134085Y12949D01*
X135045Y14200D01*
X136204Y16998D01*
X136432Y18730D01*
X125000D01*
X113568D01*
X113796Y16998D01*
X114955Y14200D01*
X115915Y12949D01*
X115289Y11679D01*
X100139D01*
Y21460D01*
X102040D01*
Y33540D01*
X87960D01*
Y21460D01*
X89861D01*
Y11679D01*
X79711D01*
X79085Y12949D01*
X80045Y14200D01*
X81204Y16998D01*
X81432Y18730D01*
X70000D01*
X58568D01*
X58796Y16998D01*
X59955Y14200D01*
X60915Y12949D01*
X60289Y11679D01*
X54008D01*
X50139Y15548D01*
Y21460D01*
X52040D01*
Y33540D01*
X37960D01*
Y21460D01*
X39861D01*
Y13420D01*
X40252Y11453D01*
X41366Y9786D01*
X44979Y6173D01*
X44493Y5000D01*
X5000D01*
Y198920D01*
X6270Y199446D01*
X9868Y195848D01*
X9960Y195786D01*
Y188360D01*
X30040D01*
Y208440D01*
X11229D01*
Y216651D01*
X12499Y217083D01*
X12839Y216639D01*
X14937Y215030D01*
X17379Y214018D01*
X20000Y213673D01*
X22621Y214018D01*
X25063Y215030D01*
X27161Y216639D01*
X28770Y218737D01*
X29372Y220191D01*
X36832D01*
X44651Y212372D01*
D02*
G37*
%LPC*%
G36*
X150830Y87310D02*
X140350D01*
Y77830D01*
X150830D01*
Y87310D01*
D02*
G37*
G36*
X94000Y253730D02*
X83770D01*
Y243500D01*
X94000D01*
Y253730D01*
D02*
G37*
G36*
X81230Y266500D02*
X71000D01*
Y256270D01*
X81230D01*
Y266500D01*
D02*
G37*
G36*
X127540Y265040D02*
X107460D01*
Y244960D01*
X122436D01*
X122448Y244948D01*
X123619Y244165D01*
X125000Y243891D01*
X135460D01*
Y241460D01*
X149540D01*
Y253540D01*
X135460D01*
Y251109D01*
X127540D01*
Y265040D01*
D02*
G37*
G36*
X81230Y253730D02*
X71000D01*
Y243500D01*
X81230D01*
Y253730D01*
D02*
G37*
G36*
X213730Y260000D02*
X206500D01*
Y253270D01*
X213730D01*
Y260000D01*
D02*
G37*
G36*
X185300Y298730D02*
X175070D01*
Y288500D01*
X185300D01*
Y298730D01*
D02*
G37*
G36*
X326200Y310127D02*
X323579Y309781D01*
X321137Y308770D01*
X319039Y307160D01*
X317430Y305063D01*
X316418Y302621D01*
X316073Y300000D01*
X316418Y297379D01*
X317430Y294937D01*
X319039Y292839D01*
X321137Y291230D01*
X323579Y290218D01*
X326200Y289873D01*
X328821Y290218D01*
X331263Y291230D01*
X333361Y292839D01*
X334970Y294937D01*
X335982Y297379D01*
X336327Y300000D01*
X335982Y302621D01*
X334970Y305063D01*
X333361Y307160D01*
X331263Y308770D01*
X328821Y309781D01*
X326200Y310127D01*
D02*
G37*
G36*
X275400Y310127D02*
X272779Y309781D01*
X270337Y308770D01*
X268239Y307161D01*
X266630Y305063D01*
X265618Y302621D01*
X265273Y300000D01*
X265618Y297379D01*
X266630Y294937D01*
X268239Y292839D01*
X270337Y291230D01*
X272779Y290218D01*
X275400Y289873D01*
X278021Y290218D01*
X280463Y291230D01*
X282561Y292839D01*
X284170Y294937D01*
X285182Y297379D01*
X285527Y300000D01*
X285182Y302621D01*
X284170Y305063D01*
X282561Y307161D01*
X280463Y308770D01*
X278021Y309781D01*
X275400Y310127D01*
D02*
G37*
G36*
X300800Y310127D02*
X298179Y309782D01*
X295737Y308770D01*
X293639Y307161D01*
X292030Y305063D01*
X291018Y302621D01*
X290673Y300000D01*
X291018Y297379D01*
X292030Y294937D01*
X293639Y292839D01*
X295737Y291230D01*
X298179Y290218D01*
X300800Y289873D01*
X303421Y290218D01*
X305863Y291230D01*
X307961Y292839D01*
X309570Y294937D01*
X310582Y297379D01*
X310927Y300000D01*
X310582Y302621D01*
X309570Y305063D01*
X307961Y307161D01*
X305863Y308770D01*
X303421Y309782D01*
X300800Y310127D01*
D02*
G37*
G36*
X330000Y223500D02*
X323270D01*
Y216270D01*
X330000D01*
Y223500D01*
D02*
G37*
G36*
X296500Y56900D02*
X286270D01*
Y46670D01*
X296500D01*
Y56900D01*
D02*
G37*
G36*
X283730D02*
X273500D01*
Y46670D01*
X283730D01*
Y56900D01*
D02*
G37*
G36*
X330000Y103730D02*
X323270D01*
Y96500D01*
X330000D01*
Y103730D01*
D02*
G37*
G36*
X259000Y96230D02*
X251270D01*
Y83500D01*
X259000D01*
Y96230D01*
D02*
G37*
G36*
X248730D02*
X241000D01*
Y83500D01*
X248730D01*
Y96230D01*
D02*
G37*
G36*
X336432Y18730D02*
X326270D01*
Y8568D01*
X328002Y8796D01*
X330800Y9955D01*
X333202Y11798D01*
X335045Y14200D01*
X336204Y16998D01*
X336432Y18730D01*
D02*
G37*
G36*
X323730D02*
X313568D01*
X313796Y16998D01*
X314955Y14200D01*
X316798Y11798D01*
X319200Y9955D01*
X321998Y8796D01*
X323730Y8568D01*
Y18730D01*
D02*
G37*
G36*
X283730Y44130D02*
X273500D01*
Y33900D01*
X283730D01*
Y44130D01*
D02*
G37*
G36*
X296500D02*
X286270D01*
Y33900D01*
X296500D01*
Y44130D01*
D02*
G37*
G36*
X323730Y31432D02*
X321998Y31204D01*
X319200Y30045D01*
X316798Y28202D01*
X314955Y25800D01*
X313796Y23002D01*
X313568Y21270D01*
X323730D01*
Y31432D01*
D02*
G37*
G36*
X326270D02*
Y21270D01*
X336432D01*
X336204Y23002D01*
X335045Y25800D01*
X333202Y28202D01*
X330800Y30045D01*
X328002Y31204D01*
X326270Y31432D01*
D02*
G37*
G36*
X201930Y158750D02*
X196811D01*
X196867Y158323D01*
X197522Y156742D01*
X198564Y155384D01*
X199922Y154342D01*
X201503Y153687D01*
X201930Y153631D01*
Y158750D01*
D02*
G37*
G36*
X272345Y153730D02*
X264250D01*
X256155D01*
X256290Y153049D01*
X257395Y151395D01*
X257636Y151234D01*
X257391Y150000D01*
X257665Y148619D01*
X258413Y147500D01*
X257665Y146381D01*
X257391Y145000D01*
X257665Y143619D01*
X258448Y142448D01*
X259619Y141665D01*
X261000Y141391D01*
X267500D01*
X268881Y141665D01*
X270052Y142448D01*
X270835Y143619D01*
X271109Y145000D01*
X270835Y146381D01*
X270087Y147500D01*
X270835Y148619D01*
X271109Y150000D01*
X270864Y151234D01*
X271105Y151395D01*
X272210Y153049D01*
X272345Y153730D01*
D02*
G37*
G36*
X201930Y166409D02*
X201503Y166353D01*
X199922Y165698D01*
X198564Y164656D01*
X197522Y163298D01*
X196867Y161717D01*
X196811Y161290D01*
X201930D01*
Y166409D01*
D02*
G37*
G36*
X219000Y178609D02*
X212500D01*
X211119Y178335D01*
X209948Y177552D01*
X209165Y176381D01*
X208891Y175000D01*
X209165Y173619D01*
X209913Y172500D01*
X209165Y171381D01*
X208891Y170000D01*
X209165Y168619D01*
X209913Y167500D01*
X209165Y166381D01*
X208949Y165292D01*
X208271Y164905D01*
X208233Y164891D01*
X207654Y164796D01*
X206478Y165698D01*
X204897Y166353D01*
X204470Y166409D01*
Y160020D01*
Y153631D01*
X204897Y153687D01*
X206478Y154342D01*
X207647Y155239D01*
X208301Y155113D01*
X208942Y154740D01*
X209165Y153619D01*
X209913Y152500D01*
X209165Y151381D01*
X208891Y150000D01*
X209165Y148619D01*
X209913Y147500D01*
X209165Y146381D01*
X208891Y145000D01*
X209165Y143619D01*
X209948Y142448D01*
X211119Y141665D01*
X212500Y141391D01*
X219000D01*
X220381Y141665D01*
X221552Y142448D01*
X222335Y143619D01*
X222609Y145000D01*
X222335Y146381D01*
X221587Y147500D01*
X222335Y148619D01*
X222609Y150000D01*
X222335Y151381D01*
X221587Y152500D01*
X222334Y153619D01*
X222609Y155000D01*
X222334Y156381D01*
X221587Y157500D01*
X222335Y158619D01*
X222609Y160000D01*
X222335Y161381D01*
X221587Y162500D01*
X222334Y163619D01*
X222609Y165000D01*
X222334Y166381D01*
X221587Y167500D01*
X222335Y168619D01*
X222609Y170000D01*
X222335Y171381D01*
X221587Y172500D01*
X222335Y173619D01*
X222609Y175000D01*
X222335Y176381D01*
X221552Y177552D01*
X220381Y178335D01*
X219000Y178609D01*
D02*
G37*
G36*
X181750Y234230D02*
X175270D01*
Y228500D01*
X181750D01*
Y234230D01*
D02*
G37*
G36*
X172730D02*
X166250D01*
Y228500D01*
X172730D01*
Y234230D01*
D02*
G37*
G36*
X167640Y224829D02*
X167213Y224773D01*
X165632Y224118D01*
X164274Y223076D01*
X163232Y221718D01*
X162577Y220137D01*
X162521Y219710D01*
X167640D01*
Y224829D01*
D02*
G37*
G36*
X170180D02*
Y219710D01*
X175299D01*
X175243Y220137D01*
X174588Y221718D01*
X173546Y223076D01*
X172188Y224118D01*
X170607Y224773D01*
X170180Y224829D01*
D02*
G37*
G36*
X167640Y217170D02*
X162521D01*
X162577Y216743D01*
X163232Y215162D01*
X164274Y213804D01*
X165632Y212762D01*
X167213Y212107D01*
X167640Y212051D01*
Y217170D01*
D02*
G37*
G36*
X175299D02*
X170180D01*
Y212051D01*
X170607Y212107D01*
X172188Y212762D01*
X173546Y213804D01*
X174588Y215162D01*
X175243Y216743D01*
X175299Y217170D01*
D02*
G37*
G36*
X133730Y298730D02*
X123500D01*
Y288500D01*
X133730D01*
Y298730D01*
D02*
G37*
G36*
X146500D02*
X136270D01*
Y288500D01*
X146500D01*
Y298730D01*
D02*
G37*
G36*
X31432D02*
X21270D01*
Y288568D01*
X23002Y288796D01*
X25800Y289955D01*
X28202Y291798D01*
X30045Y294200D01*
X31204Y296998D01*
X31432Y298730D01*
D02*
G37*
G36*
X45000Y78799D02*
X43033Y78408D01*
X41366Y77294D01*
X40252Y75627D01*
X39861Y73660D01*
X40252Y71694D01*
X41366Y70026D01*
X41391Y70010D01*
Y48540D01*
X37960D01*
Y36460D01*
X52040D01*
Y48540D01*
X48609D01*
Y70010D01*
X48634Y70026D01*
X49748Y71694D01*
X50139Y73660D01*
X49748Y75627D01*
X48634Y77294D01*
X46967Y78408D01*
X45000Y78799D01*
D02*
G37*
G36*
X115810Y59290D02*
X105330D01*
Y49810D01*
X115810D01*
Y59290D01*
D02*
G37*
G36*
X20000Y119727D02*
X17379Y119382D01*
X14937Y118370D01*
X12839Y116761D01*
X11230Y114663D01*
X10218Y112221D01*
X9873Y109600D01*
X10218Y106979D01*
X11230Y104537D01*
X12839Y102439D01*
X14937Y100830D01*
X17379Y99818D01*
X20000Y99473D01*
X22621Y99818D01*
X25063Y100830D01*
X27161Y102439D01*
X28770Y104537D01*
X29782Y106979D01*
X30127Y109600D01*
X29782Y112221D01*
X28770Y114663D01*
X27161Y116761D01*
X25063Y118370D01*
X22621Y119382D01*
X20000Y119727D01*
D02*
G37*
G36*
X45400D02*
X42779Y119382D01*
X40337Y118370D01*
X38239Y116761D01*
X36630Y114663D01*
X35619Y112221D01*
X35273Y109600D01*
X35619Y106979D01*
X36630Y104537D01*
X38239Y102439D01*
X40337Y100830D01*
X42779Y99818D01*
X45400Y99473D01*
X48021Y99818D01*
X50463Y100830D01*
X52561Y102439D01*
X54170Y104537D01*
X55182Y106979D01*
X55527Y109600D01*
X55182Y112221D01*
X54170Y114663D01*
X52561Y116761D01*
X50463Y118370D01*
X48021Y119382D01*
X45400Y119727D01*
D02*
G37*
G36*
X171580Y60290D02*
X164350D01*
Y53560D01*
X171580D01*
Y60290D01*
D02*
G37*
G36*
X18730Y31032D02*
X16998Y30804D01*
X14200Y29645D01*
X11798Y27802D01*
X9955Y25400D01*
X8796Y22602D01*
X8568Y20870D01*
X18730D01*
Y31032D01*
D02*
G37*
G36*
X21270Y31032D02*
Y20870D01*
X31432D01*
X31204Y22602D01*
X30045Y25400D01*
X28202Y27802D01*
X25800Y29645D01*
X23002Y30804D01*
X21270Y31032D01*
D02*
G37*
G36*
X123730Y31432D02*
X121998Y31204D01*
X119200Y30045D01*
X116798Y28202D01*
X114955Y25800D01*
X113796Y23002D01*
X113568Y21270D01*
X123730D01*
Y31432D01*
D02*
G37*
G36*
X18730Y18330D02*
X8568D01*
X8796Y16598D01*
X9955Y13800D01*
X11798Y11398D01*
X14200Y9555D01*
X16998Y8396D01*
X18730Y8168D01*
Y18330D01*
D02*
G37*
G36*
X31432D02*
X21270D01*
Y8168D01*
X23002Y8396D01*
X25800Y9555D01*
X28202Y11398D01*
X30045Y13800D01*
X31204Y16598D01*
X31432Y18330D01*
D02*
G37*
G36*
X68730Y31432D02*
X66998Y31204D01*
X64200Y30045D01*
X61798Y28202D01*
X59955Y25800D01*
X58796Y23002D01*
X58568Y21270D01*
X68730D01*
Y31432D01*
D02*
G37*
G36*
X30040Y55040D02*
X9960D01*
Y34960D01*
X30040D01*
Y55040D01*
D02*
G37*
G36*
X126270Y31432D02*
Y21270D01*
X136432D01*
X136204Y23002D01*
X135045Y25800D01*
X133202Y28202D01*
X130800Y30045D01*
X128002Y31204D01*
X126270Y31432D01*
D02*
G37*
G36*
X71270D02*
Y21270D01*
X81432D01*
X81204Y23002D01*
X80045Y25800D01*
X78202Y28202D01*
X75800Y30045D01*
X73002Y31204D01*
X71270Y31432D01*
D02*
G37*
G36*
X141230Y155950D02*
X136111D01*
X136167Y155523D01*
X136822Y153942D01*
X137864Y152584D01*
X139222Y151542D01*
X140803Y150887D01*
X141230Y150831D01*
Y155950D01*
D02*
G37*
G36*
Y163609D02*
X140803Y163553D01*
X139222Y162898D01*
X137864Y161856D01*
X136822Y160498D01*
X136167Y158917D01*
X136111Y158490D01*
X141230D01*
Y163609D01*
D02*
G37*
G36*
X45400Y145127D02*
X42779Y144782D01*
X40337Y143770D01*
X38239Y142161D01*
X36630Y140063D01*
X35618Y137621D01*
X35273Y135000D01*
X35618Y132379D01*
X36630Y129937D01*
X38239Y127839D01*
X40337Y126230D01*
X42779Y125218D01*
X45400Y124873D01*
X48021Y125218D01*
X50463Y126230D01*
X52561Y127839D01*
X54170Y129937D01*
X55182Y132379D01*
X55527Y135000D01*
X55182Y137621D01*
X54170Y140063D01*
X52561Y142161D01*
X50463Y143770D01*
X48021Y144782D01*
X45400Y145127D01*
D02*
G37*
G36*
X30040Y145040D02*
X9960D01*
Y124960D01*
X30040D01*
Y145040D01*
D02*
G37*
%LPD*%
D10*
X117080Y60560D02*
D03*
X117080Y76560D02*
D03*
X139080Y60560D02*
D03*
X139080Y76560D02*
D03*
D11*
X206117Y62500D02*
D03*
X238883D02*
D03*
D12*
X163080Y61560D02*
D03*
X163080Y75560D02*
D03*
X93080Y61560D02*
D03*
X93080Y75560D02*
D03*
X235000Y252000D02*
D03*
Y238000D02*
D03*
X215000Y252000D02*
D03*
Y238000D02*
D03*
X270000Y90500D02*
D03*
Y104500D02*
D03*
D13*
X308000Y215000D02*
D03*
X322000D02*
D03*
X308000Y105000D02*
D03*
X322000D02*
D03*
D14*
X210000Y97500D02*
D03*
X250000Y97500D02*
D03*
D15*
X190000Y90000D02*
D03*
X190000Y105000D02*
D03*
X142500Y247500D02*
D03*
Y262500D02*
D03*
Y217500D02*
D03*
Y232500D02*
D03*
X45000Y42500D02*
D03*
X45000Y27500D02*
D03*
X95000Y42500D02*
D03*
Y27500D02*
D03*
D16*
X117500Y225000D02*
D03*
X82500D02*
D03*
X117500Y255000D02*
D03*
X82500Y255000D02*
D03*
X215000Y20000D02*
D03*
X175800D02*
D03*
X135000Y300000D02*
D03*
X173800Y300000D02*
D03*
D17*
X308750Y173000D02*
D03*
Y166500D02*
D03*
Y160000D02*
D03*
Y153500D02*
D03*
Y147000D02*
D03*
D18*
X264250Y145000D02*
D03*
Y150000D02*
D03*
X264250Y155000D02*
D03*
X264250Y160000D02*
D03*
Y165000D02*
D03*
X264250Y170000D02*
D03*
X264250Y175000D02*
D03*
X215750D02*
D03*
X215750Y170000D02*
D03*
X215750Y165000D02*
D03*
X215750Y160000D02*
D03*
X215750Y155000D02*
D03*
X215750Y150000D02*
D03*
Y145000D02*
D03*
D19*
X255000Y184250D02*
D03*
X250000Y184250D02*
D03*
X245000D02*
D03*
X240000D02*
D03*
X235000Y184250D02*
D03*
X230000Y184250D02*
D03*
X225000Y184250D02*
D03*
Y135750D02*
D03*
X230000D02*
D03*
X235000Y135750D02*
D03*
X240000Y135750D02*
D03*
X245000D02*
D03*
X250000Y135750D02*
D03*
X255000Y135750D02*
D03*
D20*
X174000Y254500D02*
D03*
Y235500D02*
D03*
X196000Y245000D02*
D03*
D21*
X115500Y142500D02*
D03*
X115500Y147500D02*
D03*
X115500Y152500D02*
D03*
X115500Y157500D02*
D03*
X115500Y162500D02*
D03*
X115500Y167500D02*
D03*
Y172500D02*
D03*
X115500Y177500D02*
D03*
X164500D02*
D03*
X164500Y172500D02*
D03*
X164500Y167500D02*
D03*
X164500Y162500D02*
D03*
Y157500D02*
D03*
X164500Y152500D02*
D03*
X164500Y147500D02*
D03*
X164500Y142500D02*
D03*
D22*
X122500Y184500D02*
D03*
X127500Y184500D02*
D03*
X132500Y184500D02*
D03*
X137500Y184500D02*
D03*
X142500Y184500D02*
D03*
X147500Y184500D02*
D03*
X152500Y184500D02*
D03*
X157500Y184500D02*
D03*
Y135500D02*
D03*
X152500D02*
D03*
X147500D02*
D03*
X142500Y135500D02*
D03*
X137500Y135500D02*
D03*
X132500Y135500D02*
D03*
X127500Y135500D02*
D03*
X122500Y135500D02*
D03*
D23*
X146920Y60560D02*
X154940Y68580D01*
X139080Y60560D02*
X146920D01*
X154940Y68580D02*
X170180D01*
X175260Y73660D01*
Y98320D01*
X163080Y75560D02*
Y93460D01*
X157480Y99060D02*
X163080Y93460D01*
X168540Y105040D02*
X175260Y98320D01*
X117080Y76560D02*
X139580Y99060D01*
X157480D01*
X306070Y184150D02*
X308750Y181470D01*
Y173000D02*
Y181470D01*
X204280Y179271D02*
Y214440D01*
X164500Y157500D02*
X182509D01*
X181145Y162500D02*
X198120Y179475D01*
X164500Y162500D02*
X181145D01*
X198120Y179475D02*
Y220980D01*
X182509Y157500D02*
X204280Y179271D01*
X177660Y167500D02*
X190500Y180340D01*
X164500Y167500D02*
X177660D01*
X182880Y180340D02*
Y187960D01*
X175040Y172500D02*
X182880Y180340D01*
X164500Y172500D02*
X175040D01*
X99060Y190500D02*
Y208280D01*
X172720Y180340D02*
Y187960D01*
X264160Y175000D02*
Y184250D01*
X255000D02*
X264160D01*
X185420Y127000D02*
X200660D01*
X169920Y142500D02*
X185420Y127000D01*
X250000Y214440D02*
Y300000D01*
X243840Y220980D02*
Y280760D01*
X224600Y300000D02*
X243840Y280760D01*
X177980Y142240D02*
X193040D01*
X180340Y152500D02*
X182880Y149960D01*
X49180Y201580D02*
X92140D01*
X223520Y195580D02*
X235000Y207060D01*
X142500Y184500D02*
Y195320D01*
X93980Y185420D02*
X99060Y190500D01*
X55880Y185420D02*
X93980D01*
X235000Y207060D02*
Y238000D01*
X224790Y231140D02*
Y280670D01*
X48260Y170180D02*
Y213867D01*
X38327Y223800D02*
X48260Y213867D01*
X20000Y223800D02*
X38327D01*
X174000Y254500D02*
X202440Y226060D01*
X93080Y75560D02*
Y93080D01*
X105040Y105040D01*
X168540D01*
X106680Y193040D02*
X124460D01*
X104140Y190500D02*
X106680Y193040D01*
X104140Y185420D02*
Y190500D01*
X152500Y155040D02*
Y184500D01*
X147500Y150040D02*
X152500Y155040D01*
X147500Y135500D02*
Y150040D01*
X142500Y135500D02*
Y157220D01*
X124460Y193040D02*
X127500Y190000D01*
X70000Y123720D02*
X88780Y142500D01*
X70000Y53340D02*
Y123720D01*
X88780Y142500D02*
X115500D01*
X97385Y175260D02*
X105145Y167500D01*
X70000Y53340D02*
X91440D01*
X70000Y45400D02*
Y53340D01*
X95000Y42500D02*
Y49780D01*
X91440Y53340D02*
X95000Y49780D01*
X152500Y232500D02*
X152500Y232500D01*
Y184500D02*
Y232500D01*
X245000Y123300D02*
X246380Y121920D01*
X245000Y123300D02*
Y135750D01*
X270000Y79500D02*
Y90500D01*
X264160Y73660D02*
X270000Y79500D01*
X253160Y73660D02*
X264160D01*
X195580D02*
X253160D01*
X190000Y79240D02*
X195580Y73660D01*
X190000Y79240D02*
Y90000D01*
X12420Y198400D02*
X20000D01*
X7620Y203200D02*
X12420Y198400D01*
X7620Y203200D02*
Y256860D01*
X46990Y280670D02*
X152400D01*
X27940Y261620D02*
X46990Y280670D01*
X12380Y261620D02*
X27940D01*
X7620Y256860D02*
X12380Y261620D01*
X141612Y112388D02*
X147500D01*
X137500Y116500D02*
X141612Y112388D01*
X137500Y116500D02*
Y135500D01*
X187332Y112388D02*
X189872Y109848D01*
X147500Y112388D02*
X187332D01*
X189872Y105000D02*
Y109848D01*
X122500Y125040D02*
Y135500D01*
X116840Y119380D02*
X122500Y125040D01*
X91440Y119380D02*
X116840D01*
X157500Y130420D02*
X168540Y119380D01*
X157500Y130420D02*
Y135500D01*
X152500Y124360D02*
X157480Y119380D01*
X152500Y124360D02*
Y135500D01*
X147500Y112388D02*
Y135500D01*
X127500Y119380D02*
Y135500D01*
X115240Y142240D02*
X115500Y142500D01*
X238883Y43883D02*
Y62500D01*
X215000Y20000D02*
X238883Y43883D01*
X125000Y247500D02*
X142500D01*
X117500Y255000D02*
X125000Y247500D01*
X125000Y217500D02*
X142500D01*
X117500Y225000D02*
X125000Y217500D01*
X45000Y42500D02*
Y73660D01*
X210000Y74930D02*
Y97500D01*
X264250Y170000D02*
X276680D01*
X240000Y115600D02*
Y135750D01*
X127500Y184500D02*
Y190000D01*
X255000Y119500D02*
X270000Y104500D01*
X255000Y119500D02*
Y135750D01*
X276680Y170000D02*
X308000Y201320D01*
Y215000D01*
X164500Y142500D02*
X169920D01*
X164500Y147500D02*
X172720D01*
X177980Y142240D01*
X164500Y152500D02*
X180340D01*
X164500Y177500D02*
X169880D01*
X172720Y180340D01*
X76180Y157500D02*
X115500D01*
X106009Y152000D02*
X106509Y152500D01*
X115500D01*
X48260Y170180D02*
X70940Y147500D01*
X115500D01*
X74060Y152000D02*
X106009D01*
X99120Y162500D02*
X115500D01*
X105145Y167500D02*
X115500D01*
X55880Y170180D02*
X74060Y152000D01*
X66040Y167640D02*
Y177800D01*
Y167640D02*
X76180Y157500D01*
X55880Y170180D02*
Y185420D01*
X93980Y167640D02*
X99120Y162500D01*
X94190Y225000D02*
X99060Y229870D01*
X82500Y225000D02*
X94190D01*
X293540Y153500D02*
X308750D01*
X293370Y170180D02*
X293570D01*
X264250Y165000D02*
X288390D01*
X293570Y170180D01*
X264250Y160000D02*
X308750D01*
X293370Y153670D02*
X293540Y153500D01*
X173220Y254500D02*
X174000D01*
X202440Y226060D02*
X219710D01*
X224790Y231140D01*
X99060Y229870D02*
Y264160D01*
X106680Y271780D01*
X152400D01*
X77470Y167640D02*
X93980D01*
D24*
X109600Y300000D02*
Y312700D01*
X12980D02*
X109600D01*
X7620Y307340D02*
X12980Y312700D01*
X7620Y286980D02*
Y307340D01*
Y286980D02*
X20000Y274600D01*
X175800Y20000D02*
X180340Y24540D01*
Y62500D01*
X189872Y105000D02*
X190000D01*
X183740D02*
X189872D01*
X180340Y62500D02*
Y101600D01*
Y6540D02*
X271540D01*
X95000D02*
X180340D01*
X51880D02*
X95000D01*
X180340D02*
Y15460D01*
X175800Y20000D02*
X180340Y15460D01*
Y101600D02*
X183740Y105000D01*
X186500Y312700D02*
X199200Y300000D01*
X109600Y312700D02*
X186500D01*
X160768Y262500D02*
Y312368D01*
X152500Y232500D02*
X160768Y240768D01*
X142500Y232500D02*
X152500D01*
X160768Y240768D02*
Y262500D01*
X179821D02*
X204321Y238000D01*
X160768Y262500D02*
X179821D01*
X142500D02*
X160768D01*
X204321Y238000D02*
X215000D01*
X45000Y13420D02*
X51880Y6540D01*
X271540D02*
X285000Y20000D01*
X95000Y6540D02*
Y27500D01*
X45000Y13420D02*
Y27500D01*
X180340Y62500D02*
X206117D01*
D25*
X308000Y93980D02*
Y105000D01*
Y62400D02*
Y93980D01*
X300540Y105000D02*
X308000D01*
X294250Y111290D02*
X300540Y105000D01*
X300470Y147000D02*
X308750D01*
X294250Y140780D02*
X300470Y147000D01*
X294250Y111290D02*
Y140780D01*
X308000Y62400D02*
X325000Y45400D01*
D26*
D03*
X285000D02*
D03*
X70000D02*
D03*
X20000Y45000D02*
D03*
X20000Y198400D02*
D03*
X20000Y135000D02*
D03*
D27*
X325000Y20000D02*
D03*
X285000D02*
D03*
X240400D02*
D03*
X150400D02*
D03*
X125000D02*
D03*
X70000D02*
D03*
X20000Y19600D02*
D03*
Y300000D02*
D03*
Y274600D02*
D03*
Y249200D02*
D03*
X20000Y223800D02*
D03*
X58800Y300000D02*
D03*
X84200D02*
D03*
X109600D02*
D03*
X326200Y300000D02*
D03*
X300800Y300000D02*
D03*
X275400Y300000D02*
D03*
X250000Y300000D02*
D03*
X199200D02*
D03*
X224600Y300000D02*
D03*
X45400Y109600D02*
D03*
X20000D02*
D03*
X45400Y135000D02*
D03*
D28*
X335500Y195125D02*
D03*
Y124875D02*
D03*
D29*
X305500Y184250D02*
D03*
Y135750D02*
D03*
D30*
X139080Y76560D02*
D03*
X157480Y99060D02*
D03*
X95250Y271780D02*
D03*
X168910Y218440D02*
D03*
X203200Y160020D02*
D03*
X99060Y208280D02*
D03*
X182880Y187960D02*
D03*
X172720D02*
D03*
X190500Y180340D02*
D03*
X264160Y184250D02*
D03*
X200660Y127000D02*
D03*
X198120Y220980D02*
D03*
X204280Y214440D02*
D03*
X250000D02*
D03*
X243840Y220980D02*
D03*
X193040Y142240D02*
D03*
X182880Y149960D02*
D03*
X92140Y201580D02*
D03*
X223520Y195580D02*
D03*
X142500Y195320D02*
D03*
X224790Y280670D02*
D03*
X168540Y105040D02*
D03*
X104140Y185420D02*
D03*
X142500Y157220D02*
D03*
X97385Y175260D02*
D03*
X246380Y121920D02*
D03*
X168540Y119380D02*
D03*
X157480D02*
D03*
X127500D02*
D03*
X45000Y73660D02*
D03*
X91440Y119380D02*
D03*
X240000Y115600D02*
D03*
X308000Y93980D02*
D03*
X66040Y177800D02*
D03*
X55880Y185420D02*
D03*
X293370Y170180D02*
D03*
Y153670D02*
D03*
X152400Y280670D02*
D03*
Y271780D02*
D03*
X253160Y73660D02*
D03*
X77470Y167640D02*
D03*
D31*
X160768Y262500D02*
D03*
M02*
