<?xml version="1.0" standalone="no"?>
<!DOCTYPE svg PUBLIC "-//W3C//DTD SVG 1.1//EN"
  "http://www.w3.org/Graphics/SVG/1.1/DTD/svg11.dtd">
<svg width="41.422481536865234mm" height="38.422481536865234mm" viewBox="-99.96124267578125 56.038761138916016 41.422481536865234 38.422481536865234" xmlns="http://www.w3.org/2000/svg" version="1.1">
	<title>svgOutput</title>
	<desc>made with tinkercad</desc>
<path d="M -98 92.29499816894531 L -98 92.16000366210938 L -98 91.97321319580078 L -98 90.11199951171875 L -98 88.06400299072266 L -98 86.01599884033203 L -98 81.91999816894531 L -98 79.5469970703125 L -98 73.72799682617188 L -98 65.53600311279297 L -98 62.54800033569336 L -98 61.439998626708984 L -98 59.391998291015625 L -98 58.36800003051758 L -98 58.11199951171875 L -98 57.99700164794922 L -98.00299835205078 57.99700164794922 L -98.00299835205078 58.11199951171875 L -98.00299835205078 58.36800003051758 L -98.00299835205078 59.391998291015625 L -98.00299835205078 61.439998626708984 L -98.00299835205078 65.53600311279297 L -98.00299835205078 69.09700012207031 L -98.00299835205078 73.72799682617188 L -98.00299835205078 79.5469970703125 L -98.00299835205078 81.91999816894531 L -98.00299835205078 86.01599884033203 L -98.00299835205078 88.06400299072266 L -98.00299835205078 90.11199951171875 L -98.00299835205078 92.16000366210938 L -98.00299835205078 92.25595092773438 L -98.00469970703125 92.41600036621094 L -98.0055923461914 92.5 L -98.00299835205078 92.50001525878906 L -98.00299835205078 92.50299835205078 L -97.79199981689453 92.50299835205078 L -97.27999877929688 92.50299835205078 L -96.25599670410156 92.50299835205078 L -94.20800018310547 92.50299835205078 L -90.11199951171875 92.50299835205078 L -81.91999816894531 92.50299835205078 L -73.72799682617188 92.50299835205078 L -65.53600311279297 92.50299835205078 L -61.439998626708984 92.50299835205078 L -60.5 92.50299835205078 L -60.49800109863281 92.50299835205078 L -60.49800109863281 92.16000366210938 L -60.49800109863281 90.11199951171875 L -60.49800109863281 88.06400299072266 L -60.49800109863281 86.01599884033203 L -60.49800109863281 81.91999816894531 L -60.49800109863281 73.72799682617188 L -60.49800109863281 69.63200378417969 L -60.49800109863281 65.53600311279297 L -60.49800109863281 61.439998626708984 L -60.49800109863281 59.391998291015625 L -60.49800109863281 58.36800003051758 L -60.49800109863281 58.11199951171875 L -60.49800109863281 57.99700164794922 L -60.5 57.99700164794922 L -60.5 58.11199951171875 L -60.5 58.36800003051758 L -60.5 59.391998291015625 L -60.5 61.439998626708984 L -60.5 62.54800033569336 L -60.5 65.53600311279297 L -60.5 69.63200378417969 L -60.5 73.72799682617188 L -60.5 81.91999816894531 L -60.5 86.01599884033203 L -60.5 88.06400299072266 L -60.5 90.11199951171875 L -60.5 92.16000366210938 L -60.5 92.29499816894531 L -61.439998626708984 92.29499816894531 L -65.53600311279297 92.29499816894531 L -73.72799682617188 92.29499816894531 L -81.91999816894531 92.29499816894531 L -90.11199951171875 92.29499816894531 L -94.20800018310547 92.29499816894531 L -96.25599670410156 92.29499816894531 L -97.27999877929688 92.29499816894531 L -97.79199981689453 92.29499816894531 L -98 92.29499816894531 M -98.36763763427734 57.120521545410156 L -98.30400085449219 57.09413146972656 L -98.28235626220703 57.08515930175781 L -98.16230010986328 57.10216522216797 L -98 57.19902420043945 L -97.49376678466797 57.196861267089844 L -94.20800018310547 57.182830810546875 L -90.11199951171875 57.165340423583984 L -81.91999816894531 57.1303596496582 L -73.72799682617188 57.09537887573242 L -69.63200378417969 57.07788848876953 L -68.73943328857422 57.07407760620117 L -65.53600311279297 57.06034469604492 L -61.439998626708984 57.042789459228516 L -60.5 57.038761138916016 L -60.457313537597656 57.045570373535156 L -60.31747817993164 57.06787872314453 L -60.232200622558594 57.103240966796875 L -60.07752990722656 57.191017150878906 L -59.89830780029297 57.34400177001953 L -59.794429779052734 57.43267059326172 L -59.6515998840332 57.653160095214844 L -59.603240966796875 57.732200622558594 L -59.56787872314453 57.81747817993164 L -59.538761138916016 58 L -59.538761138916016 58.20245361328125 L -59.538761138916016 58.36800003051758 L -59.538761138916016 59.391998291015625 L -59.538761138916016 61.439998626708984 L -59.538761138916016 65.53600311279297 L -59.538761138916016 69.63200378417969 L -59.538761138916016 73.72799682617188 L -59.538761138916016 74.55999755859375 L -59.55324935913086 81.91999816894531 L -59.56131362915039 86.01599884033203 L -59.56534194946289 88.06400299072266 L -59.569374084472656 90.11199951171875 L -59.57340621948242 92.16000366210938 L -59.57407760620117 92.5 L -59.54719543457031 92.5887451171875 L -59.54603958129883 92.59255981445312 L -59.56787872314453 92.6825180053711 L -59.603240966796875 92.7677993774414 L -59.68506622314453 92.91027069091797 L -59.727474212646484 93.00917053222656 L -59.781768798828125 93.09791564941406 L -59.848907470703125 93.17731475830078 L -59.859859466552734 93.18399810791016 L -60.11279296875 93.33844757080078 L -60.31747817993164 93.43212127685547 L -60.5 93.46124267578125 L -61.439998626708984 93.46124267578125 L -65.53600311279297 93.46124267578125 L -73.72799682617188 93.46124267578125 L -80 93.46124267578125 L -81.91999816894531 93.45616149902344 L -90.11199951171875 93.43450164794922 L -94.20800018310547 93.42366790771484 L -96.25599670410156 93.41825866699219 L -98 93.41364288330078 L -98.30400085449219 93.35045623779297 L -98.3041763305664 93.35041809082031 L -98.46855163574219 93.2612075805664 L -98.54576110839844 93.18399810791016 L -98.6448745727539 93.08488464355469 L -98.74645233154297 93.05606079101562 L -98.82201385498047 92.90774536132812 L -98.84830474853516 92.85614013671875 L -98.92192077636719 92.74849700927734 L -98.92732238769531 92.7406005859375 L -98.93650817871094 92.68303680419922 L -98.9564437866211 92.5580825805664 L -98.91364288330078 92.5 L -98.91461944580078 92.16000366210938 L -98.9205093383789 90.11199951171875 L -98.94405364990234 81.91999816894531 L -98.95087432861328 79.5469970703125 L -98.95101165771484 79.49800109863281 L -98.96124267578125 75.94000244140625 L -98.9568862915039 73.72799682617188 L -98.94075775146484 65.53600311279297 L -98.93269348144531 61.439998626708984 L -98.92866516113281 59.391998291015625 L -98.92665100097656 58.36800003051758 L -98.9259262084961 58 L -98.91812133789062 57.90558624267578 L -98.89627075195312 57.81351089477539 L -98.89620208740234 57.660118103027344 L -98.85875701904297 57.58140182495117 L -98.83119201660156 57.53925704956055 L -98.73291778564453 57.388999938964844 L -98.67242431640625 57.34400177001953 L -98.51740264892578 57.22867965698242 L -98.4466781616211 57.168880462646484 L -98.36763763427734 57.120521545410156 M -80.1894760131836 80.4429702758789 L -80.13500213623047 80.52100372314453 L -80.05255889892578 80.60365295410156 L -79.87200164794922 80.78421020507812 L -79.76020812988281 80.89600372314453 L -79.7422103881836 80.91400146484375 L -79.6385269165039 81.00212097167969 L -79.25 81.33300018310547 L -79.24960327148438 81.3326644897461 L -78.75800323486328 80.91400146484375 L -78.73999786376953 80.89600372314453 L -78.36499786376953 80.52100372314453 L -78.1050033569336 80.1500015258789 L -78.03500366210938 79.97100067138672 L -78.02342224121094 79.87200164794922 L -77.99700164794922 79.64600372314453 L -78.02542877197266 79.38461303710938 L -78.02818298339844 79.36000061035156 L -78.03321075439453 79.31500244140625 L -78.10620880126953 79.13900756835938 L -78.10620880126953 79.13899993896484 L -78.20767974853516 79.0186538696289 L -78.23453521728516 78.98680114746094 L -78.23521423339844 78.98600006103516 L -78.39315032958984 78.8999252319336 L -78.43499755859375 78.87699890136719 L -78.63587951660156 78.8479995727539 L -78.65927124023438 78.84461975097656 L -78.71920776367188 78.83599853515625 L -78.77063751220703 78.8479995727539 L -78.8479995727539 78.86605072021484 L -78.88439178466797 78.87454223632812 L -78.92921447753906 78.88500213623047 L -79.06149291992188 78.97476196289062 L -79.09721374511719 78.9990005493164 L -79.18531036376953 79.09967803955078 L -79.18905639648438 79.10399627685547 L -79.20899963378906 79.12699890136719 L -79.24960327148438 79.21910095214844 L -79.25 79.22000122070312 L -79.26314544677734 79.18943786621094 L -79.28158569335938 79.14656066894531 L -79.29020690917969 79.12699890136719 L -79.31033325195312 79.10399627685547 L -79.36000061035156 79.0472412109375 L -79.40105438232422 79.00032043457031 L -79.40221405029297 78.9990005493164 L -79.5356674194336 78.90897369384766 L -79.57099914550781 78.88500213623047 L -79.61516571044922 78.87469482421875 L -79.7290267944336 78.8479995727539 L -79.78021240234375 78.83599853515625 L -79.78070068359375 78.83606719970703 L -79.86392211914062 78.8479995727539 L -79.87200164794922 78.84915924072266 L -80.00517272949219 78.86824798583984 L -80.06600189208984 78.87699890136719 L -80.26461029052734 78.98578643798828 L -80.26499938964844 78.98600006103516 L -80.29192352294922 79.01818084716797 L -80.39379119873047 79.13899993896484 L -80.40935516357422 79.17601776123047 L -80.46700286865234 79.31500244140625 L -80.50299835205078 79.64600372314453 L -80.47657775878906 79.87200164794922 L -80.46499633789062 79.97100067138672 L -80.40972137451172 80.11235046386719 L -80.39582824707031 80.14737701416016 L -80.39479064941406 80.1500015258789 L -80.1894760131836 80.4429702758789 M -77.99800109863281 77.59500122070312 L -77.99800109863281 75.7760009765625 L -77.99800109863281 73.72799682617188 L -77.99800109863281 72.60600280761719 L -80.50199890136719 72.60600280761719 L -80.50199890136719 73.72799682617188 L -80.50199890136719 75.7760009765625 L -80.50199890136719 77.59500122070312 L -79.87200164794922 77.59500122070312 L -77.99800109863281 77.59500122070312 M -79.09721374511719 78.9990005493164 L -79.09721374511719 78.9990005493164 z" fill="none" stroke="rgb(0,0,255)" stroke-width="0.01mm" />
</svg>